<svg width="562" height="440" viewBox="0 0 562 440" fill="none" xmlns="http://www.w3.org/2000/svg">
<path d="M281.169 -169H241.002L281.169 200.627V-169Z" fill="url(#paint0_linear_1_12098)" fill-opacity="0.05"/>
<path d="M0 -62.4033V34.7903L281.168 200.627L0 -62.4033Z" fill="url(#paint1_linear_1_12098)" fill-opacity="0.05"/>
<path d="M90.2776 -169H10.041L281.167 200.627L90.2776 -169Z" fill="url(#paint2_linear_1_12098)" fill-opacity="0.05"/>
<path d="M198.354 -169H149.789L281.168 200.627L198.354 -169Z" fill="url(#paint3_linear_1_12098)" fill-opacity="0.05"/>
<path d="M562.336 120.059V34.502L281.168 200.626L562.336 120.059Z" fill="url(#paint4_linear_1_12098)" fill-opacity="0.05"/>
<path d="M364.012 -169H321.278L281.168 200.627L364.012 -169Z" fill="url(#paint5_linear_1_12098)" fill-opacity="0.05"/>
<path d="M562.336 280.92V200.627H281.168L562.336 280.92Z" fill="url(#paint6_linear_1_12098)" fill-opacity="0.05"/>
<path d="M471.961 -169H412.431L281.168 200.627L471.961 -169Z" fill="url(#paint7_linear_1_12098)" fill-opacity="0.05"/>
<path d="M562.336 -62.8708V-169H552.514L281.168 200.627L562.336 -62.8708Z" fill="url(#paint8_linear_1_12098)" fill-opacity="0.05"/>
<path d="M334.985 440.123H366.523L281.168 200.627L334.985 440.123Z" fill="url(#paint9_linear_1_12098)" fill-opacity="0.05"/>
<path d="M0 120.333V200.626H281.168L0 120.333Z" fill="url(#paint10_linear_1_12098)" fill-opacity="0.05"/>
<path d="M281.168 440.123H307.109L281.168 200.627V440.123Z" fill="url(#paint11_linear_1_12098)" fill-opacity="0.05"/>
<path d="M536.169 440.123H562.336V367.164L281.168 200.627L536.169 440.123Z" fill="url(#paint12_linear_1_12098)" fill-opacity="0.05"/>
<path d="M404.855 440.123H456.898L281.168 200.627L404.855 440.123Z" fill="url(#paint13_linear_1_12098)" fill-opacity="0.05"/>
<path d="M0 281.072V366.751L281.168 200.626L0 281.072Z" fill="url(#paint14_linear_1_12098)" fill-opacity="0.05"/>
<path d="M227.611 440.123H255.251L281.167 200.627L227.611 440.123Z" fill="url(#paint15_linear_1_12098)" fill-opacity="0.05"/>
<path d="M26.7773 440.123H106.139L281.168 200.627L26.7773 440.123Z" fill="url(#paint16_linear_1_12098)" fill-opacity="0.05"/>
<path d="M158.156 440.123H196.471L281.167 200.627L158.156 440.123Z" fill="url(#paint17_linear_1_12098)" fill-opacity="0.05"/>
<defs>
<linearGradient id="paint0_linear_1_12098" x1="234.272" y1="-191.133" x2="319.526" y2="-184.663" gradientUnits="userSpaceOnUse">
<stop stop-color="white"/>
<stop offset="1" stop-color="white" stop-opacity="0.2"/>
</linearGradient>
<linearGradient id="paint1_linear_1_12098" x1="-47.1106" y1="-78.1536" x2="338.273" y2="209.583" gradientUnits="userSpaceOnUse">
<stop stop-color="white"/>
<stop offset="1" stop-color="white" stop-opacity="0.2"/>
</linearGradient>
<linearGradient id="paint2_linear_1_12098" x1="-35.3871" y1="-191.133" x2="423.057" y2="43.7415" gradientUnits="userSpaceOnUse">
<stop stop-color="white"/>
<stop offset="1" stop-color="white" stop-opacity="0.2"/>
</linearGradient>
<linearGradient id="paint3_linear_1_12098" x1="127.776" y1="-191.133" x2="391.951" y2="-125.549" gradientUnits="userSpaceOnUse">
<stop stop-color="white"/>
<stop offset="1" stop-color="white" stop-opacity="0.2"/>
</linearGradient>
<linearGradient id="paint4_linear_1_12098" x1="234.057" y1="24.5544" x2="484.408" y2="320.508" gradientUnits="userSpaceOnUse">
<stop stop-color="white"/>
<stop offset="1" stop-color="white" stop-opacity="0.2"/>
</linearGradient>
<linearGradient id="paint5_linear_1_12098" x1="267.287" y1="-191.133" x2="439.906" y2="-164.111" gradientUnits="userSpaceOnUse">
<stop stop-color="white"/>
<stop offset="1" stop-color="white" stop-opacity="0.2"/>
</linearGradient>
<linearGradient id="paint6_linear_1_12098" x1="234.057" y1="195.819" x2="320.022" y2="406.074" gradientUnits="userSpaceOnUse">
<stop stop-color="white"/>
<stop offset="1" stop-color="white" stop-opacity="0.2"/>
</linearGradient>
<linearGradient id="paint7_linear_1_12098" x1="249.2" y1="-191.133" x2="609.638" y2="-61.1851" gradientUnits="userSpaceOnUse">
<stop stop-color="white"/>
<stop offset="1" stop-color="white" stop-opacity="0.2"/>
</linearGradient>
<linearGradient id="paint8_linear_1_12098" x1="234.057" y1="-191.133" x2="702.139" y2="57.5609" gradientUnits="userSpaceOnUse">
<stop stop-color="white"/>
<stop offset="1" stop-color="white" stop-opacity="0.2"/>
</linearGradient>
<linearGradient id="paint9_linear_1_12098" x1="266.867" y1="186.286" x2="438.443" y2="228.996" gradientUnits="userSpaceOnUse">
<stop stop-color="white"/>
<stop offset="1" stop-color="white" stop-opacity="0.2"/>
</linearGradient>
<linearGradient id="paint10_linear_1_12098" x1="-47.1106" y1="115.525" x2="38.8538" y2="325.78" gradientUnits="userSpaceOnUse">
<stop stop-color="white"/>
<stop offset="1" stop-color="white" stop-opacity="0.2"/>
</linearGradient>
<linearGradient id="paint11_linear_1_12098" x1="276.821" y1="186.286" x2="331.883" y2="190.452" gradientUnits="userSpaceOnUse">
<stop stop-color="white"/>
<stop offset="1" stop-color="white" stop-opacity="0.2"/>
</linearGradient>
<linearGradient id="paint12_linear_1_12098" x1="234.057" y1="186.286" x2="592.954" y2="480.578" gradientUnits="userSpaceOnUse">
<stop stop-color="white"/>
<stop offset="1" stop-color="white" stop-opacity="0.2"/>
</linearGradient>
<linearGradient id="paint13_linear_1_12098" x1="251.724" y1="186.286" x2="548.824" y2="338.548" gradientUnits="userSpaceOnUse">
<stop stop-color="white"/>
<stop offset="1" stop-color="white" stop-opacity="0.2"/>
</linearGradient>
<linearGradient id="paint14_linear_1_12098" x1="-47.1106" y1="190.679" x2="203.24" y2="486.633" gradientUnits="userSpaceOnUse">
<stop stop-color="white"/>
<stop offset="1" stop-color="white" stop-opacity="0.2"/>
</linearGradient>
<linearGradient id="paint15_linear_1_12098" x1="218.638" y1="186.286" x2="330.242" y2="203.717" gradientUnits="userSpaceOnUse">
<stop stop-color="white"/>
<stop offset="1" stop-color="white" stop-opacity="0.2"/>
</linearGradient>
<linearGradient id="paint16_linear_1_12098" x1="-15.8465" y1="186.286" x2="334.416" y2="446.145" gradientUnits="userSpaceOnUse">
<stop stop-color="white"/>
<stop offset="1" stop-color="white" stop-opacity="0.2"/>
</linearGradient>
<linearGradient id="paint17_linear_1_12098" x1="137.545" y1="186.286" x2="370.197" y2="269.749" gradientUnits="userSpaceOnUse">
<stop stop-color="white"/>
<stop offset="1" stop-color="white" stop-opacity="0.2"/>
</linearGradient>
</defs>
</svg>
