<svg width="20" height="20" viewBox="0 0 20 20" fill="none" xmlns="http://www.w3.org/2000/svg">
<path d="M10.0013 1.6665C8.90695 1.6665 7.82332 1.88205 6.81227 2.30084C5.80123 2.71963 4.88257 3.33346 4.10875 4.10728C2.54594 5.67008 1.66797 7.7897 1.66797 9.99984C1.66797 12.21 2.54594 14.3296 4.10875 15.8924C4.88257 16.6662 5.80123 17.28 6.81227 17.6988C7.82332 18.1176 8.90695 18.3332 10.0013 18.3332C12.2114 18.3332 14.3311 17.4552 15.8939 15.8924C17.4567 14.3296 18.3346 12.21 18.3346 9.99984C18.3346 8.90549 18.1191 7.82185 17.7003 6.81081C17.2815 5.79976 16.6677 4.8811 15.8939 4.10728C15.12 3.33346 14.2014 2.71963 13.1903 2.30084C12.1793 1.88205 11.0957 1.6665 10.0013 1.6665ZM13.5013 13.4998L9.16797 10.8332V5.83317H10.418V10.1665L14.168 12.4165L13.5013 13.4998Z" fill="#FF9E42"/>
</svg>
