<svg width="32" height="32" viewBox="0 0 32 32" fill="none" xmlns="http://www.w3.org/2000/svg">
<rect width="32" height="32" rx="16" fill="#FF9E42" fill-opacity="0.1"/>
<rect x="0.5" y="0.5" width="31" height="31" rx="15.5" stroke="#121212" stroke-opacity="0.1"/>
<path d="M16 8.5C20.1423 8.5 23.5 11.8585 23.5 16C23.5 20.1415 20.1423 23.5 16 23.5C11.8578 23.5 8.5 20.1415 8.5 16C8.5 11.8585 11.8578 8.5 16 8.5ZM16 9.75025C12.5538 9.75025 9.75025 12.5538 9.75025 16C9.75025 19.4462 12.5538 22.2498 16 22.2498C19.4462 22.2498 22.2498 19.4462 22.2498 16C22.2498 12.5538 19.4462 9.75025 16 9.75025ZM16 18.625C16.4142 18.625 16.75 18.9608 16.75 19.375C16.75 19.7892 16.4142 20.125 16 20.125C15.5858 20.125 15.25 19.7892 15.25 19.375C15.25 18.9608 15.5858 18.625 16 18.625ZM16 12.0625C17.1391 12.0625 18.0625 12.9859 18.0625 14.125C18.0625 14.8831 17.8393 15.3055 17.2741 15.8939L17.1477 16.0227C16.6813 16.4892 16.5625 16.6872 16.5625 17.125C16.5625 17.4357 16.3107 17.6875 16 17.6875C15.6893 17.6875 15.4375 17.4357 15.4375 17.125C15.4375 16.3669 15.6607 15.9445 16.2259 15.3561L16.3523 15.2273C16.8187 14.7608 16.9375 14.5628 16.9375 14.125C16.9375 13.6072 16.5178 13.1875 16 13.1875C15.5146 13.1875 15.1153 13.5564 15.0673 14.0291L15.0625 14.125C15.0625 14.4357 14.8107 14.6875 14.5 14.6875C14.1893 14.6875 13.9375 14.4357 13.9375 14.125C13.9375 12.9859 14.8609 12.0625 16 12.0625Z" fill="#FF9E42"/>
</svg>
