<svg width="20" height="20" viewBox="0 0 20 20" fill="none" xmlns="http://www.w3.org/2000/svg">
<path fill-rule="evenodd" clip-rule="evenodd" d="M18.3327 10.0001C18.3327 14.6025 14.6017 18.3334 9.99935 18.3334C5.39698 18.3334 1.66602 14.6025 1.66602 10.0001C1.66602 5.39771 5.39698 1.66675 9.99935 1.66675C14.6017 1.66675 18.3327 5.39771 18.3327 10.0001ZM9.99935 6.45841C9.42405 6.45841 8.95768 6.92478 8.95768 7.50008C8.95768 7.84526 8.67786 8.12508 8.33268 8.12508C7.9875 8.12508 7.70768 7.84526 7.70768 7.50008C7.70768 6.23443 8.7337 5.20841 9.99935 5.20841C11.265 5.20841 12.291 6.23443 12.291 7.50008C12.291 7.95536 12.1576 8.38139 11.9275 8.73894C11.7834 8.96289 11.615 9.1767 11.4596 9.36977L11.3758 9.47362C11.2469 9.63317 11.1286 9.77962 11.0192 9.92989C10.7496 10.3005 10.6243 10.579 10.6243 10.8334V11.2501C10.6243 11.5953 10.3445 11.8751 9.99935 11.8751C9.65417 11.8751 9.37435 11.5953 9.37435 11.2501V10.8334C9.37435 10.1674 9.70136 9.61656 10.0085 9.19446C10.1383 9.0161 10.2805 8.8402 10.4098 8.68024L10.4857 8.58615C10.64 8.39436 10.7714 8.22562 10.8764 8.06254C10.9805 7.90065 11.041 7.70838 11.041 7.50008C11.041 6.92478 10.5746 6.45841 9.99935 6.45841ZM10.6243 13.3334C10.6243 12.9882 10.3445 12.7084 9.99935 12.7084C9.65417 12.7084 9.37435 12.9882 9.37435 13.3334V14.1667C9.37435 14.5119 9.65417 14.7917 9.99935 14.7917C10.3445 14.7917 10.6243 14.5119 10.6243 14.1667V13.3334Z" fill="#121212"/>
</svg>
