<svg width="32" height="32" viewBox="0 0 32 32" fill="none" xmlns="http://www.w3.org/2000/svg">
<rect width="32" height="32" rx="16" fill="#BA6414" fill-opacity="0.1"/>
<rect x="0.5" y="0.5" width="31" height="31" rx="15.5" stroke="#BA6414" stroke-opacity="0.1"/>
<path fill-rule="evenodd" clip-rule="evenodd" d="M11.6243 8.70898C9.43822 8.70898 7.66602 10.4812 7.66602 12.6673V19.334C7.66602 21.5201 9.43822 23.2923 11.6243 23.2923H17.666C19.8521 23.2923 21.6243 21.5201 21.6243 19.334C21.6243 18.9888 21.3445 18.709 20.9993 18.709C20.6542 18.709 20.3743 18.9888 20.3743 19.334C20.3743 20.8298 19.1618 22.0423 17.666 22.0423H13.8861C14.5507 21.3343 14.9577 20.3817 14.9577 19.334V12.6673C14.9577 11.6196 14.5507 10.667 13.8861 9.95898H17.666C19.1618 9.95898 20.3743 11.1715 20.3743 12.6673C20.3743 13.0125 20.6542 13.2923 20.9993 13.2923C21.3445 13.2923 21.6243 13.0125 21.6243 12.6673C21.6243 10.4812 19.8521 8.70898 17.666 8.70898H11.6243ZM21.9547 18.1093C21.7106 17.8652 21.7106 17.4695 21.9547 17.2254L22.5544 16.6257H17.4577C17.1125 16.6257 16.8327 16.3458 16.8327 16.0007C16.8327 15.6555 17.1125 15.3757 17.4577 15.3757H22.5544L21.9547 14.7759C21.7106 14.5318 21.7106 14.1361 21.9547 13.892C22.1988 13.648 22.5945 13.648 22.8386 13.892L23.916 14.9695C24.4855 15.539 24.4855 16.4623 23.916 17.0318L22.8386 18.1093C22.5945 18.3533 22.1988 18.3533 21.9547 18.1093Z" fill="#BA6414"/>
</svg>
