<svg width="100" height="29" viewBox="0 0 100 29" fill="none" xmlns="http://www.w3.org/2000/svg">
<path d="M7.19446 12.3121C7.25475 12.3742 7.31643 12.4349 7.37811 12.495C6.112 12.6646 4.97806 13.2646 4.11914 14.1497C3.09697 15.2025 2.46484 16.6565 2.46484 18.2633V12.4463C2.46484 10.8992 3.0492 9.49386 4.00552 8.4516C4.04215 8.41052 4.08065 8.36992 4.12007 8.32931C4.46234 7.9768 4.84913 7.6687 5.26978 7.41602V7.52588C5.26978 7.55263 5.26978 7.57985 5.2707 7.60756C5.27163 7.67634 5.27395 7.74752 5.2772 7.82776C5.27905 7.86025 5.28044 7.8932 5.2823 7.92473C5.2823 7.92473 5.28462 7.97297 5.28555 7.99113L5.34816 8.86908H5.40149C5.65518 10.1669 6.27571 11.3658 7.19446 12.3116V12.3121Z" fill="#F2F2F2"/>
<g style="mix-blend-mode:overlay">
<path d="M5.27105 7.60802C4.81191 7.8306 4.38662 8.11526 4.00586 8.45151C4.0425 8.41043 4.08099 8.36984 4.12041 8.32924C4.46268 7.97675 4.84947 7.66868 5.27012 7.41602V7.52587C5.27012 7.55262 5.27012 7.57984 5.27105 7.60754V7.60802Z" fill="#FFB300"/>
</g>
<path d="M16.8806 5.82228H5.65161C5.40627 5.82228 5.16464 5.80508 4.92765 5.77499C3.65689 5.60733 2.51693 5.00451 1.65523 4.11701C0.63213 3.06327 0 1.6083 0 0H11.2295C12.7901 0 14.2028 0.652015 15.2258 1.70527C15.5741 2.064 15.877 2.46906 16.1251 2.9109C16.6061 3.76735 16.8806 4.76186 16.8806 5.82228Z" fill="#0E83A4"/>
<path d="M16.8806 5.82228H5.65161C5.40627 5.82228 5.16464 5.80508 4.92765 5.77499C3.65689 5.60733 2.51693 5.00451 1.65523 4.11701C0.63213 3.06327 0 1.6083 0 0H11.2295C12.7901 0 14.2028 0.652015 15.2258 1.70527C15.5741 2.064 15.877 2.46906 16.1251 2.9109C16.6061 3.76735 16.8806 4.76186 16.8806 5.82228Z" fill="#FFB300"/>
<g style="mix-blend-mode:overlay">
<path d="M16.8806 5.82228H16.4822C16.4219 4.91137 16.1599 4.0573 15.7393 3.30832C15.4911 2.86648 15.1883 2.46141 14.84 2.10269C13.8169 1.04896 12.4042 0.397418 10.8436 0.397418H0.0134496C0.00417401 0.266538 0 0.133269 0 0H11.2295C12.7901 0 14.2028 0.652015 15.2258 1.70527C15.5741 2.064 15.877 2.46906 16.1251 2.9109C16.6061 3.76735 16.8806 4.76186 16.8806 5.82228Z" fill="white"/>
</g>
<path d="M8.11645 13.1008V15.6544C8.11645 15.7189 8.11552 15.7834 8.1132 15.8469C8.0863 16.7139 7.87436 17.5336 7.51771 18.2644C7.24455 18.8242 6.88744 19.3315 6.46122 19.7705C5.43813 20.8242 4.02546 21.4757 2.46484 21.4757V18.2644C2.46484 16.658 3.09697 15.2035 4.11914 14.1507C4.97852 13.2656 6.11246 12.6657 7.37811 12.4961C7.61047 12.7153 7.85673 12.9174 8.11645 13.1008Z" fill="#FFB300"/>
<path opacity="0.5" d="M8.11645 13.1003V13.2852H8.1132C6.55352 13.2852 5.14131 13.9363 4.11914 14.989C3.09697 16.0418 2.46484 17.4958 2.46484 19.1027V18.2644C2.46484 16.658 3.09697 15.2035 4.11914 14.1507C4.97852 13.2656 6.11246 12.6657 7.37811 12.4961C7.61047 12.7153 7.85673 12.9169 8.11645 13.1003Z" fill="white"/>
<path d="M8.10712 5.81641H8.06641V5.82057H8.10712V5.81641Z" fill="#0E83A4"/>
<path d="M23.0683 14.1504C23.0683 15.7577 22.4362 17.2127 21.4131 18.2664C20.39 19.3202 18.9773 19.9717 17.4167 19.9717H14.2987C12.7391 19.9717 11.3269 20.6228 10.3047 21.6755C9.28252 22.7283 8.65039 24.1823 8.65039 25.7892V19.9722C8.65039 18.3639 9.28252 16.9089 10.3056 15.8552C11.3287 14.8015 12.7414 14.1504 14.302 14.1504H23.0679H23.0683Z" fill="#0E83A4"/>
<g style="mix-blend-mode:overlay">
<path d="M23.0682 14.1504C23.0682 15.7576 22.4361 17.2125 21.413 18.2661C21.3096 18.3726 21.2015 18.4758 21.0897 18.5742C22.0451 17.532 22.6295 16.1268 22.6295 14.5807H13.8636C12.4616 14.5807 11.1788 15.1061 10.1914 15.9773C10.228 15.9362 10.2665 15.8956 10.306 15.855C11.3291 14.8014 12.7417 14.1504 14.3023 14.1504H23.0682Z" fill="#F2F2F2"/>
</g>
<path d="M23.0686 13.3477H11.8391C11.5938 13.3477 11.3521 13.3305 11.1151 13.3004C9.84439 13.1327 8.70443 12.5299 7.84273 11.6424C6.81963 10.5887 6.1875 9.13369 6.1875 7.52539H17.417C18.9776 7.52539 20.3903 8.17741 21.4134 9.23066C21.7616 9.58939 22.0645 9.99445 22.3126 10.4363C22.7936 11.2927 23.0681 12.2872 23.0681 13.3477H23.0686Z" fill="#0E83A4"/>
<path d="M23.0686 13.3477H11.8391C11.5938 13.3477 11.3521 13.3305 11.1151 13.3004C9.84439 13.1327 8.70443 12.5299 7.84273 11.6424C6.81963 10.5887 6.1875 9.13369 6.1875 7.52539H17.417C18.9776 7.52539 20.3903 8.17741 21.4134 9.23066C21.7616 9.58939 22.0645 9.99445 22.3126 10.4363C22.7936 11.2927 23.0681 12.2872 23.0681 13.3477H23.0686Z" fill="#0E83A4"/>
<g style="mix-blend-mode:overlay">
<path d="M23.0681 13.3477H22.6697C22.6094 12.4368 22.3474 11.5827 21.9268 10.8337C21.6786 10.3919 21.3758 9.98681 21.0275 9.62808C20.0044 8.57435 18.5917 7.92281 17.0311 7.92281H6.20095C6.19167 7.79193 6.1875 7.65866 6.1875 7.52539H17.417C18.9776 7.52539 20.3903 8.17741 21.4134 9.23066C21.7616 9.58939 22.0645 9.99445 22.3126 10.4363C22.7936 11.2927 23.0681 12.2872 23.0681 13.3477Z" fill="#F2F2F2"/>
</g>
<path d="M14.302 19.9712V23.1782C14.302 23.2427 14.3011 23.3072 14.2988 23.3707C14.2719 24.2377 14.0599 25.0574 13.7033 25.7882C13.4301 26.348 13.073 26.8553 12.6468 27.2943C11.6237 28.348 10.211 28.9996 8.65039 28.9996V25.7882C8.65039 24.1818 9.28252 22.7273 10.3047 21.6745C11.3269 20.6218 12.7386 19.9707 14.2988 19.9707H14.302V19.9712Z" fill="#F2F2F2"/>
<path opacity="0.5" d="M14.302 19.9727V20.811H14.2987C12.7391 20.811 11.3269 21.462 10.3047 22.5148C9.28252 23.5676 8.65039 25.0216 8.65039 26.6285V25.7902C8.65039 24.1838 9.28252 22.7293 10.3047 21.6765C11.3269 20.6237 12.7386 19.9727 14.2987 19.9727H14.302Z" fill="white"/>
<path d="M14.2946 13.3438H14.2539V13.3479H14.2946V13.3438Z" fill="#0E83A4"/>
<path d="M30.6107 7.4122H34.2014C35.2876 7.4122 36.0627 7.76547 36.5267 8.47201C36.9907 9.16801 37.2227 10.1909 37.2227 11.5407C37.2227 12.8906 37.0171 13.9082 36.6058 14.5936C36.1945 15.2791 35.4563 15.6218 34.3913 15.6218H33.284V21H30.6107V7.4122ZM33.4422 13.17C33.7691 13.17 34.0064 13.112 34.154 12.996C34.3122 12.8695 34.4124 12.6955 34.4545 12.474C34.5073 12.242 34.5336 11.9151 34.5336 11.4933C34.5336 10.9238 34.4704 10.5126 34.3438 10.2595C34.2173 10.0064 33.9642 9.87983 33.5845 9.87983H33.284V13.17H33.4422ZM37.708 21L39.0209 7.4122H43.624L44.9211 21H42.3427L42.1529 18.8013H40.5078L40.3496 21H37.708ZM40.7135 16.6342H41.9473L41.3462 9.72165H41.2196L40.7135 16.6342ZM45.7492 7.4122H49.9252C50.5896 7.4122 51.101 7.56511 51.4596 7.87092C51.8286 8.1662 52.0765 8.58801 52.203 9.13638C52.3296 9.67419 52.3928 10.3649 52.3928 11.2086C52.3928 11.9784 52.2926 12.5795 52.0923 13.0118C51.8919 13.4442 51.5439 13.7447 51.0483 13.9135C51.4596 13.9978 51.7548 14.2035 51.9341 14.5304C52.1239 14.8573 52.2188 15.3002 52.2188 15.8591L52.1872 21H49.5297V15.6851C49.5297 15.3055 49.4559 15.0629 49.3083 14.9575C49.1606 14.852 48.8917 14.7993 48.5016 14.7993V21H45.7492V7.4122ZM49.1659 12.4424C49.5456 12.4424 49.7354 12.0311 49.7354 11.2086C49.7354 10.85 49.7196 10.5811 49.6879 10.4018C49.6563 10.2226 49.5983 10.1013 49.5139 10.038C49.4296 9.96419 49.3083 9.92729 49.1501 9.92729H48.5174V12.4424H49.1659ZM54.4581 21V10.0222H52.8446V7.4122H58.7923V10.0222H57.1788V21H54.4581ZM61.2043 21V16.5235L59.0372 7.4122H61.7263L62.4856 12.0153L63.2448 7.4122H65.9339L63.7668 16.5235V21H61.2043Z" fill="white"/>
<path d="M66.6187 7.4122H70.2094C71.2956 7.4122 72.0707 7.76547 72.5347 8.47201C72.9987 9.16801 73.2307 10.1909 73.2307 11.5407C73.2307 12.8906 73.025 13.9082 72.6137 14.5936C72.2025 15.2791 71.4643 15.6218 70.3992 15.6218H69.2919V21H66.6187V7.4122ZM69.4501 13.17C69.777 13.17 70.0143 13.112 70.1619 12.996C70.3201 12.8695 70.4203 12.6955 70.4625 12.474C70.5152 12.242 70.5416 11.9151 70.5416 11.4933C70.5416 10.9238 70.4783 10.5126 70.3518 10.2595C70.2252 10.0064 69.9721 9.87983 69.5925 9.87983H69.2919V13.17H69.4501ZM73.9532 21V7.4122H76.579V21H73.9532ZM80.8272 21.1265C79.8359 21.1265 79.0398 20.8155 78.4387 20.1933C77.8481 19.5711 77.5528 18.7169 77.5528 17.6307V11.3667C77.5528 10.0169 77.8218 8.99929 78.3596 8.31383C78.8974 7.62838 79.741 7.28565 80.8905 7.28565C81.8923 7.28565 82.699 7.55983 83.3107 8.1082C83.9223 8.65656 84.2281 9.44747 84.2281 10.4809V12.822H81.5232V10.8131C81.5232 10.4229 81.4758 10.154 81.3808 10.0064C81.2859 9.85874 81.1225 9.78492 80.8905 9.78492C80.6479 9.78492 80.4792 9.86929 80.3843 10.038C80.2999 10.2067 80.2578 10.4546 80.2578 10.7815V17.5991C80.2578 17.9576 80.3105 18.2213 80.4159 18.39C80.5214 18.5482 80.6796 18.6273 80.8905 18.6273C81.3123 18.6273 81.5232 18.2845 81.5232 17.5991V15.1473H84.2597V17.7098C84.2597 19.9876 83.1156 21.1265 80.8272 21.1265ZM85.1556 21V7.4122H87.8447V12.8536L89.1101 7.4122H91.8467L90.3281 13.6287L92.163 21H89.3474L87.8605 14.4196V21H85.1556ZM95.8436 21.1265C94.6098 21.1265 93.7187 20.8207 93.1703 20.2091C92.622 19.5975 92.3478 18.6115 92.3478 17.2511V15.9224H95.021V17.6149C95.021 18.2898 95.2372 18.6273 95.6696 18.6273C95.9121 18.6273 96.0809 18.5587 96.1758 18.4216C96.2707 18.274 96.3181 18.0315 96.3181 17.694C96.3181 17.2511 96.2654 16.8873 96.1599 16.6026C96.0545 16.3073 95.9174 16.0647 95.7487 15.8749C95.5905 15.6746 95.3005 15.3687 94.8787 14.9575L93.7081 13.7869C92.8012 12.9011 92.3478 11.9204 92.3478 10.8447C92.3478 9.68474 92.6114 8.8042 93.1387 8.20311C93.6765 7.59147 94.4569 7.28565 95.4798 7.28565C96.703 7.28565 97.5836 7.61256 98.1214 8.26638C98.6592 8.90965 98.9281 9.92201 98.9281 11.3035H96.1599L96.1441 10.3702C96.1441 10.1909 96.0914 10.0486 95.9859 9.9431C95.891 9.83765 95.754 9.78492 95.5747 9.78492C95.3638 9.78492 95.2056 9.84292 95.1001 9.95892C94.9947 10.0749 94.942 10.2331 94.942 10.4335C94.942 10.8764 95.195 11.3351 95.7012 11.8096L97.283 13.3282C97.6521 13.6867 97.9579 14.0295 98.2005 14.3564C98.443 14.6727 98.6381 15.0524 98.7858 15.4953C98.9334 15.9276 99.0072 16.4444 99.0072 17.0455C99.0072 18.3847 98.7594 19.4024 98.2638 20.0984C97.7787 20.7838 96.9719 21.1265 95.8436 21.1265Z" fill="#FFB200"/>
</svg>
