<svg width="149" height="44" viewBox="0 0 149 44" fill="none" xmlns="http://www.w3.org/2000/svg">
<path d="M10.9767 18.6802C11.0687 18.7745 11.1629 18.8665 11.257 18.9578C9.32501 19.2151 7.59471 20.1254 6.28408 21.4683C4.72434 23.0656 3.75977 25.2717 3.75977 27.7097V18.8839C3.75977 16.5365 4.65145 14.4043 6.1107 12.8229C6.1666 12.7606 6.22534 12.699 6.2855 12.6374C6.80777 12.1025 7.39798 11.6351 8.03985 11.2517V11.4184C8.03985 11.459 8.03985 11.5003 8.04126 11.5423C8.04268 11.6467 8.04622 11.7547 8.05117 11.8764C8.054 11.9257 8.05613 11.9757 8.05896 12.0236C8.05896 12.0236 8.06249 12.0967 8.06391 12.1243L8.15945 13.4564H8.24083C8.62794 15.4255 9.57482 17.2445 10.9767 18.6795V18.6802Z" fill="#121212"/>
<g style="mix-blend-mode:overlay">
<path d="M8.04189 11.543C7.34129 11.8807 6.69234 12.3126 6.11133 12.8228C6.16724 12.7605 6.22597 12.6989 6.28613 12.6373C6.8084 12.1025 7.39861 11.6351 8.04048 11.2517V11.4184C8.04048 11.459 8.04048 11.5003 8.04189 11.5423V11.543Z" fill="#FFB300"/>
</g>
<path d="M25.7583 8.8338H8.62386C8.24949 8.8338 7.88079 8.80771 7.51916 8.76205C5.5801 8.50767 3.84061 7.59305 2.52573 6.24649C0.964575 4.64773 0 2.44018 0 0H17.1352C19.5166 0 21.6722 0.989264 23.2333 2.5873C23.7648 3.13158 24.2269 3.74616 24.6055 4.41654C25.3394 5.71599 25.7583 7.22488 25.7583 8.8338Z" fill="#00B5E8"/>
<path d="M25.7583 8.8338H8.62386C8.24949 8.8338 7.88079 8.80771 7.51916 8.76205C5.5801 8.50767 3.84061 7.59305 2.52573 6.24649C0.964575 4.64773 0 2.44018 0 0H17.1352C19.5166 0 21.6722 0.989264 23.2333 2.5873C23.7648 3.13158 24.2269 3.74616 24.6055 4.41654C25.3394 5.71599 25.7583 7.22488 25.7583 8.8338Z" fill="#FFB300"/>
<g style="mix-blend-mode:overlay">
<path d="M25.7583 8.8338H25.1504C25.0584 7.45173 24.6586 6.1559 24.0167 5.01952C23.6381 4.34914 23.176 3.73456 22.6445 3.19028C21.0834 1.59152 18.9278 0.60298 16.5464 0.60298H0.0205229C0.00636917 0.404402 0 0.202201 0 0H17.1352C19.5166 0 21.6722 0.989264 23.2333 2.5873C23.7648 3.13158 24.2269 3.74616 24.6055 4.41654C25.3394 5.71599 25.7583 7.22488 25.7583 8.8338Z" fill="#121212"/>
</g>
<path d="M12.3836 19.8758V23.7502C12.3836 23.848 12.3822 23.9459 12.3787 24.0423C12.3376 25.3577 12.0142 26.6013 11.47 27.7102C11.0532 28.5595 10.5083 29.3292 9.85789 29.9952C8.29674 31.594 6.14113 32.5825 3.75977 32.5825V27.7102C3.75977 25.2729 4.72434 23.0661 6.28408 21.4687C7.59542 20.1258 9.32571 19.2155 11.257 18.9583C11.6115 19.2909 11.9873 19.5975 12.3836 19.8758Z" fill="#FFB300"/>
<path opacity="0.5" d="M12.3836 19.876V20.1565H12.3787C9.99872 20.1565 7.84382 21.1443 6.28408 22.7416C4.72434 24.3389 3.75977 26.545 3.75977 28.983V27.7111C3.75977 25.2738 4.72434 23.067 6.28408 21.4697C7.59542 20.1268 9.32571 19.2165 11.257 18.9592C11.6115 19.2919 11.9873 19.5984 12.3836 19.8767V19.876Z" fill="#121212"/>
<path d="M12.3707 8.82642H12.3086V8.83259H12.3707V8.82642Z" fill="#00B5E8"/>
<path d="M35.1998 21.4697C35.1998 23.9085 34.2352 26.116 32.674 27.7148C31.1129 29.3135 28.9573 30.3021 26.5759 30.3021H21.8181C19.4382 30.3021 17.2833 31.2899 15.7235 32.8872C14.1638 34.4845 13.1992 36.6906 13.1992 39.1286V30.3028C13.1992 27.8626 14.1638 25.6551 15.7249 24.0563C17.2861 22.4575 19.4417 21.4697 21.8231 21.4697H35.199H35.1998Z" fill="#00B5E8"/>
<g style="mix-blend-mode:overlay">
<path d="M35.2016 21.4702C35.2016 23.9087 34.2371 26.1161 32.6759 27.7147C32.5181 27.8763 32.3532 28.0329 32.1826 28.1822C33.6405 26.6009 34.5322 24.4689 34.5322 22.1231H21.1562C19.0169 22.1231 17.0594 22.9203 15.5527 24.2421C15.6086 24.1798 15.6674 24.1182 15.7275 24.0566C17.2887 22.4579 19.4443 21.4702 21.8257 21.4702H35.2016Z" fill="#F2F2F2"/>
</g>
<path d="M35.2005 20.2525H18.0653C17.6909 20.2525 17.3222 20.2264 16.9606 20.1807C15.0215 19.9264 13.282 19.0118 11.9671 17.6652C10.406 16.0664 9.44141 13.8589 9.44141 11.4187H26.5766C28.958 11.4187 31.1136 12.408 32.6747 14.006C33.2062 14.5503 33.6683 15.1649 34.0469 15.8352C34.7808 17.1347 35.1997 18.6436 35.1997 20.2525H35.2005Z" fill="#00B5E8"/>
<path d="M35.2005 20.2525H18.0653C17.6909 20.2525 17.3222 20.2264 16.9606 20.1807C15.0215 19.9264 13.282 19.0118 11.9671 17.6652C10.406 16.0664 9.44141 13.8589 9.44141 11.4187H26.5766C28.958 11.4187 31.1136 12.408 32.6747 14.006C33.2062 14.5503 33.6683 15.1649 34.0469 15.8352C34.7808 17.1347 35.1997 18.6436 35.1997 20.2525H35.2005Z" fill="#00B5E8"/>
<g style="mix-blend-mode:overlay">
<path d="M35.1997 20.2525H34.5918C34.4998 18.8704 34.1 17.5746 33.4581 16.4382C33.0795 15.7678 32.6174 15.1533 32.0859 14.609C30.5248 13.0102 28.3692 12.0217 25.9878 12.0217H9.46193C9.44778 11.8231 9.44141 11.6209 9.44141 11.4187H26.5766C28.958 11.4187 31.1136 12.408 32.6747 14.006C33.2062 14.5503 33.6683 15.1649 34.0469 15.8352C34.7808 17.1347 35.1997 18.6436 35.1997 20.2525Z" fill="#F2F2F2"/>
</g>
<path d="M21.8231 30.3017V35.1676C21.8231 35.2655 21.8217 35.3633 21.8181 35.4597C21.7771 36.7751 21.4537 38.0187 20.9095 39.1276C20.4926 39.977 19.9477 40.7466 19.2973 41.4127C17.7362 43.0114 15.5806 44 13.1992 44V39.1276C13.1992 36.6903 14.1638 34.4835 15.7235 32.8862C17.2833 31.2888 19.4375 30.301 21.8181 30.301H21.8231V30.3017Z" fill="#121212"/>
<path opacity="0.5" d="M21.825 30.3027V31.5746H21.8201C19.4401 31.5746 17.2852 32.5625 15.7255 34.1598C14.1657 35.7571 13.2012 37.9632 13.2012 40.4012V39.1293C13.2012 36.692 14.1657 34.4852 15.7255 32.8879C17.2852 31.2905 19.4394 30.3027 21.8201 30.3027H21.825Z" fill="#121212"/>
<path d="M21.8121 20.2456H21.75V20.2518H21.8121V20.2456Z" fill="#00B5E8"/>
<path d="M44.9896 10.8421H50.3166C51.928 10.8421 53.0778 11.3662 53.7662 12.4144C54.4545 13.4469 54.7987 14.9644 54.7987 16.9669C54.7987 18.9694 54.4936 20.4791 53.8835 21.496C53.2734 22.5129 52.1783 23.0213 50.5982 23.0213H48.9555V31H44.9896V10.8421ZM49.1902 19.384C49.6752 19.384 50.0272 19.298 50.2462 19.1259C50.4808 18.9381 50.6295 18.68 50.692 18.3515C50.7703 18.0073 50.8094 17.5223 50.8094 16.8965C50.8094 16.0517 50.7155 15.4416 50.5278 15.0661C50.34 14.6907 49.9646 14.5029 49.4014 14.5029H48.9555V19.384H49.1902ZM55.5187 31L57.4664 10.8421H64.2952L66.2195 31H62.3944L62.1128 27.7381H59.6723L59.4376 31H55.5187ZM59.9773 24.5232H61.8077L60.916 14.2683H60.7283L59.9773 24.5232ZM67.448 10.8421H73.6432C74.6288 10.8421 75.3875 11.069 75.9195 11.5227C76.467 11.9607 76.8347 12.5865 77.0224 13.4C77.2101 14.1979 77.304 15.2226 77.304 16.4741C77.304 17.6162 77.1554 18.5079 76.8581 19.1493C76.5609 19.7908 76.0446 20.2366 75.3093 20.4869C75.9195 20.6121 76.3575 20.9172 76.6235 21.4021C76.9051 21.8871 77.0459 22.5442 77.0459 23.3733L76.9989 31H73.0565V23.1152C73.0565 22.552 72.947 22.1922 72.728 22.0357C72.509 21.8793 72.11 21.8011 71.5312 21.8011V31H67.448V10.8421ZM72.5168 18.3045C73.08 18.3045 73.3616 17.6944 73.3616 16.4741C73.3616 15.9422 73.3381 15.5433 73.2912 15.2773C73.2442 15.0114 73.1582 14.8315 73.0331 14.7376C72.9079 14.6281 72.728 14.5733 72.4933 14.5733H71.5547V18.3045H72.5168ZM80.3678 31V14.7141H77.9742V10.8421H86.7977V14.7141H84.4041V31H80.3678ZM90.376 31V24.3589L87.1611 10.8421H91.1504L92.2768 17.6709L93.4032 10.8421H97.3926L94.1776 24.3589V31H90.376Z" fill="#121212"/>
<path d="M98.4084 10.8421H103.735C105.347 10.8421 106.497 11.3662 107.185 12.4144C107.873 13.4469 108.217 14.9644 108.217 16.9669C108.217 18.9694 107.912 20.4791 107.302 21.496C106.692 22.5129 105.597 23.0213 104.017 23.0213H102.374V31H98.4084V10.8421ZM102.609 19.384C103.094 19.384 103.446 19.298 103.665 19.1259C103.9 18.9381 104.048 18.68 104.111 18.3515C104.189 18.0073 104.228 17.5223 104.228 16.8965C104.228 16.0517 104.134 15.4416 103.947 15.0661C103.759 14.6907 103.383 14.5029 102.82 14.5029H102.374V19.384H102.609ZM109.289 31V10.8421H113.185V31H109.289ZM119.487 31.1877C118.017 31.1877 116.835 30.7262 115.944 29.8032C115.068 28.8802 114.63 27.613 114.63 26.0016V16.7088C114.63 14.7063 115.028 13.1966 115.826 12.1797C116.624 11.1628 117.876 10.6544 119.581 10.6544C121.067 10.6544 122.264 11.0612 123.171 11.8747C124.079 12.6882 124.532 13.8615 124.532 15.3947V18.8677H120.52V15.8875C120.52 15.3086 120.449 14.9097 120.308 14.6907C120.168 14.4716 119.925 14.3621 119.581 14.3621C119.221 14.3621 118.971 14.4873 118.83 14.7376C118.705 14.9879 118.642 15.3556 118.642 15.8405V25.9547C118.642 26.4866 118.721 26.8777 118.877 27.128C119.033 27.3627 119.268 27.48 119.581 27.48C120.207 27.48 120.52 26.9716 120.52 25.9547V22.3173H124.579V26.1189C124.579 29.4981 122.882 31.1877 119.487 31.1877ZM125.908 31V10.8421H129.898V18.9147L131.775 10.8421H135.835L133.582 20.0645L136.304 31H132.127L129.921 21.2379V31H125.908ZM141.764 31.1877C139.934 31.1877 138.612 30.734 137.798 29.8267C136.985 28.9193 136.578 27.4565 136.578 25.4384V23.4672H140.544V25.9781C140.544 26.9794 140.865 27.48 141.506 27.48C141.866 27.48 142.116 27.3783 142.257 27.1749C142.398 26.9559 142.468 26.5961 142.468 26.0955C142.468 25.4384 142.39 24.8987 142.234 24.4763C142.077 24.0382 141.874 23.6784 141.624 23.3968C141.389 23.0996 140.959 22.6459 140.333 22.0357L138.596 20.2992C137.251 18.9851 136.578 17.5301 136.578 15.9344C136.578 14.2135 136.969 12.9072 137.752 12.0155C138.549 11.1081 139.707 10.6544 141.225 10.6544C143.039 10.6544 144.346 11.1394 145.144 12.1093C145.941 13.0636 146.34 14.5655 146.34 16.6149H142.234L142.21 15.2304C142.21 14.9644 142.132 14.7532 141.976 14.5968C141.835 14.4404 141.631 14.3621 141.365 14.3621C141.053 14.3621 140.818 14.4482 140.661 14.6203C140.505 14.7924 140.427 15.027 140.427 15.3243C140.427 15.9813 140.802 16.6619 141.553 17.3659L143.9 19.6187C144.447 20.1506 144.901 20.659 145.261 21.144C145.621 21.6133 145.91 22.1765 146.129 22.8336C146.348 23.475 146.458 24.2416 146.458 25.1333C146.458 27.1202 146.09 28.6299 145.355 29.6624C144.635 30.6793 143.438 31.1877 141.764 31.1877Z" fill="#FFB200"/>
</svg>
