<svg width="24" height="29" viewBox="0 0 24 29" fill="none" xmlns="http://www.w3.org/2000/svg">
<path d="M7.19446 12.3121C7.25475 12.3742 7.31643 12.4349 7.37811 12.495C6.112 12.6646 4.97806 13.2646 4.11914 14.1497C3.09697 15.2025 2.46484 16.6565 2.46484 18.2633V12.4463C2.46484 10.8992 3.0492 9.49386 4.00552 8.4516C4.04215 8.41052 4.08065 8.36992 4.12007 8.32931C4.46234 7.9768 4.84913 7.6687 5.26978 7.41602V7.52588C5.26978 7.55263 5.26978 7.57985 5.2707 7.60756C5.27163 7.67634 5.27395 7.74752 5.2772 7.82776C5.27905 7.86025 5.28044 7.8932 5.2823 7.92473C5.2823 7.92473 5.28462 7.97297 5.28555 7.99113L5.34816 8.86908H5.40149C5.65518 10.1669 6.27571 11.3658 7.19446 12.3116V12.3121Z" fill="#F2F2F2"/>
<g style="mix-blend-mode:overlay">
<path d="M5.27105 7.60802C4.81191 7.8306 4.38662 8.11526 4.00586 8.45151C4.0425 8.41043 4.08099 8.36984 4.12041 8.32924C4.46268 7.97675 4.84947 7.66868 5.27012 7.41602V7.52587C5.27012 7.55262 5.27012 7.57984 5.27105 7.60754V7.60802Z" fill="#FFB300"/>
</g>
<path d="M16.8806 5.82228H5.65161C5.40627 5.82228 5.16464 5.80508 4.92765 5.77499C3.65689 5.60733 2.51693 5.00451 1.65523 4.11701C0.63213 3.06327 0 1.6083 0 0H11.2295C12.7901 0 14.2028 0.652015 15.2258 1.70527C15.5741 2.064 15.877 2.46906 16.1251 2.9109C16.6061 3.76735 16.8806 4.76186 16.8806 5.82228Z" fill="#0E83A4"/>
<path d="M16.8806 5.82228H5.65161C5.40627 5.82228 5.16464 5.80508 4.92765 5.77499C3.65689 5.60733 2.51693 5.00451 1.65523 4.11701C0.63213 3.06327 0 1.6083 0 0H11.2295C12.7901 0 14.2028 0.652015 15.2258 1.70527C15.5741 2.064 15.877 2.46906 16.1251 2.9109C16.6061 3.76735 16.8806 4.76186 16.8806 5.82228Z" fill="#FFB300"/>
<g style="mix-blend-mode:overlay">
<path d="M16.8806 5.82228H16.4822C16.4219 4.91137 16.1599 4.0573 15.7393 3.30832C15.4911 2.86648 15.1883 2.46141 14.84 2.10269C13.8169 1.04896 12.4042 0.397418 10.8436 0.397418H0.0134496C0.00417401 0.266538 0 0.133269 0 0H11.2295C12.7901 0 14.2028 0.652015 15.2258 1.70527C15.5741 2.064 15.877 2.46906 16.1251 2.9109C16.6061 3.76735 16.8806 4.76186 16.8806 5.82228Z" fill="white"/>
</g>
<path d="M8.11645 13.1008V15.6544C8.11645 15.7189 8.11552 15.7834 8.1132 15.8469C8.0863 16.7139 7.87436 17.5336 7.51771 18.2644C7.24455 18.8242 6.88744 19.3315 6.46122 19.7705C5.43813 20.8242 4.02546 21.4757 2.46484 21.4757V18.2644C2.46484 16.658 3.09697 15.2035 4.11914 14.1507C4.97852 13.2656 6.11246 12.6657 7.37811 12.4961C7.61047 12.7153 7.85673 12.9174 8.11645 13.1008Z" fill="#FFB300"/>
<path opacity="0.5" d="M8.11645 13.1003V13.2852H8.1132C6.55352 13.2852 5.14131 13.9363 4.11914 14.989C3.09697 16.0418 2.46484 17.4958 2.46484 19.1027V18.2644C2.46484 16.658 3.09697 15.2035 4.11914 14.1507C4.97852 13.2656 6.11246 12.6657 7.37811 12.4961C7.61047 12.7153 7.85673 12.9169 8.11645 13.1003Z" fill="white"/>
<path d="M8.10712 5.81641H8.06641V5.82057H8.10712V5.81641Z" fill="#0E83A4"/>
<path d="M23.0683 14.1504C23.0683 15.7577 22.4362 17.2127 21.4131 18.2664C20.39 19.3202 18.9773 19.9717 17.4167 19.9717H14.2987C12.7391 19.9717 11.3269 20.6228 10.3047 21.6755C9.28252 22.7283 8.65039 24.1823 8.65039 25.7892V19.9722C8.65039 18.3639 9.28252 16.9089 10.3056 15.8552C11.3287 14.8015 12.7414 14.1504 14.302 14.1504H23.0679H23.0683Z" fill="#0E83A4"/>
<g style="mix-blend-mode:overlay">
<path d="M23.0682 14.1504C23.0682 15.7576 22.4361 17.2125 21.413 18.2661C21.3096 18.3726 21.2015 18.4758 21.0897 18.5742C22.0451 17.532 22.6295 16.1268 22.6295 14.5807H13.8636C12.4616 14.5807 11.1788 15.1061 10.1914 15.9773C10.228 15.9362 10.2665 15.8956 10.306 15.855C11.3291 14.8014 12.7417 14.1504 14.3023 14.1504H23.0682Z" fill="#F2F2F2"/>
</g>
<path d="M23.0686 13.3477H11.8391C11.5938 13.3477 11.3521 13.3305 11.1151 13.3004C9.84439 13.1327 8.70443 12.5299 7.84273 11.6424C6.81963 10.5887 6.1875 9.13369 6.1875 7.52539H17.417C18.9776 7.52539 20.3903 8.17741 21.4134 9.23066C21.7616 9.58939 22.0645 9.99445 22.3126 10.4363C22.7936 11.2927 23.0681 12.2872 23.0681 13.3477H23.0686Z" fill="#0E83A4"/>
<path d="M23.0686 13.3477H11.8391C11.5938 13.3477 11.3521 13.3305 11.1151 13.3004C9.84439 13.1327 8.70443 12.5299 7.84273 11.6424C6.81963 10.5887 6.1875 9.13369 6.1875 7.52539H17.417C18.9776 7.52539 20.3903 8.17741 21.4134 9.23066C21.7616 9.58939 22.0645 9.99445 22.3126 10.4363C22.7936 11.2927 23.0681 12.2872 23.0681 13.3477H23.0686Z" fill="#0E83A4"/>
<g style="mix-blend-mode:overlay">
<path d="M23.0681 13.3477H22.6697C22.6094 12.4368 22.3474 11.5827 21.9268 10.8337C21.6786 10.3919 21.3758 9.98681 21.0275 9.62808C20.0044 8.57435 18.5917 7.92281 17.0311 7.92281H6.20095C6.19167 7.79193 6.1875 7.65866 6.1875 7.52539H17.417C18.9776 7.52539 20.3903 8.17741 21.4134 9.23066C21.7616 9.58939 22.0645 9.99445 22.3126 10.4363C22.7936 11.2927 23.0681 12.2872 23.0681 13.3477Z" fill="#F2F2F2"/>
</g>
<path d="M14.302 19.9712V23.1782C14.302 23.2427 14.3011 23.3072 14.2988 23.3707C14.2719 24.2377 14.0599 25.0574 13.7033 25.7882C13.4301 26.348 13.073 26.8553 12.6468 27.2943C11.6237 28.348 10.211 28.9996 8.65039 28.9996V25.7882C8.65039 24.1818 9.28252 22.7273 10.3047 21.6745C11.3269 20.6218 12.7386 19.9707 14.2988 19.9707H14.302V19.9712Z" fill="#F2F2F2"/>
<path opacity="0.5" d="M14.302 19.9727V20.811H14.2987C12.7391 20.811 11.3269 21.462 10.3047 22.5148C9.28252 23.5676 8.65039 25.0216 8.65039 26.6285V25.7902C8.65039 24.1838 9.28252 22.7293 10.3047 21.6765C11.3269 20.6237 12.7386 19.9727 14.2987 19.9727H14.302Z" fill="white"/>
<path d="M14.2946 13.3438H14.2539V13.3479H14.2946V13.3438Z" fill="#0E83A4"/>
</svg>
