<svg width="36" height="44" viewBox="0 0 36 44" fill="none" xmlns="http://www.w3.org/2000/svg">
<path d="M10.9767 18.6802C11.0687 18.7745 11.1629 18.8665 11.257 18.9578C9.32501 19.2151 7.59471 20.1254 6.28408 21.4683C4.72434 23.0656 3.75977 25.2717 3.75977 27.7097V18.8839C3.75977 16.5365 4.65145 14.4043 6.1107 12.8229C6.1666 12.7606 6.22534 12.699 6.2855 12.6374C6.80777 12.1025 7.39798 11.6351 8.03985 11.2517V11.4184C8.03985 11.459 8.03985 11.5003 8.04126 11.5423C8.04268 11.6467 8.04622 11.7547 8.05117 11.8764C8.054 11.9257 8.05613 11.9757 8.05896 12.0236C8.05896 12.0236 8.06249 12.0967 8.06391 12.1243L8.15945 13.4564H8.24083C8.62794 15.4255 9.57482 17.2445 10.9767 18.6795V18.6802Z" fill="#121212"/>
<g style="mix-blend-mode:overlay">
<path d="M8.04189 11.543C7.34129 11.8807 6.69234 12.3126 6.11133 12.8228C6.16724 12.7605 6.22597 12.6989 6.28613 12.6373C6.8084 12.1025 7.39861 11.6351 8.04048 11.2517V11.4184C8.04048 11.459 8.04048 11.5003 8.04189 11.5423V11.543Z" fill="#FFB300"/>
</g>
<path d="M25.7583 8.8338H8.62386C8.24949 8.8338 7.88079 8.80771 7.51916 8.76205C5.5801 8.50767 3.84061 7.59305 2.52573 6.24649C0.964575 4.64773 0 2.44018 0 0H17.1352C19.5166 0 21.6722 0.989264 23.2333 2.5873C23.7648 3.13158 24.2269 3.74616 24.6055 4.41654C25.3394 5.71599 25.7583 7.22488 25.7583 8.8338Z" fill="#00B5E8"/>
<path d="M25.7583 8.8338H8.62386C8.24949 8.8338 7.88079 8.80771 7.51916 8.76205C5.5801 8.50767 3.84061 7.59305 2.52573 6.24649C0.964575 4.64773 0 2.44018 0 0H17.1352C19.5166 0 21.6722 0.989264 23.2333 2.5873C23.7648 3.13158 24.2269 3.74616 24.6055 4.41654C25.3394 5.71599 25.7583 7.22488 25.7583 8.8338Z" fill="#FFB300"/>
<g style="mix-blend-mode:overlay">
<path d="M25.7583 8.8338H25.1504C25.0584 7.45173 24.6586 6.1559 24.0167 5.01952C23.6381 4.34914 23.176 3.73456 22.6445 3.19028C21.0834 1.59152 18.9278 0.60298 16.5464 0.60298H0.0205229C0.00636917 0.404402 0 0.202201 0 0H17.1352C19.5166 0 21.6722 0.989264 23.2333 2.5873C23.7648 3.13158 24.2269 3.74616 24.6055 4.41654C25.3394 5.71599 25.7583 7.22488 25.7583 8.8338Z" fill="#121212"/>
</g>
<path d="M12.3836 19.8758V23.7502C12.3836 23.848 12.3822 23.9459 12.3787 24.0423C12.3376 25.3577 12.0142 26.6013 11.47 27.7102C11.0532 28.5595 10.5083 29.3292 9.85789 29.9952C8.29674 31.594 6.14113 32.5825 3.75977 32.5825V27.7102C3.75977 25.2729 4.72434 23.0661 6.28408 21.4687C7.59542 20.1258 9.32571 19.2155 11.257 18.9583C11.6115 19.2909 11.9873 19.5975 12.3836 19.8758Z" fill="#FFB300"/>
<path opacity="0.5" d="M12.3836 19.876V20.1565H12.3787C9.99872 20.1565 7.84382 21.1443 6.28408 22.7416C4.72434 24.3389 3.75977 26.545 3.75977 28.983V27.7111C3.75977 25.2738 4.72434 23.067 6.28408 21.4697C7.59542 20.1268 9.32571 19.2165 11.257 18.9592C11.6115 19.2919 11.9873 19.5984 12.3836 19.8767V19.876Z" fill="#121212"/>
<path d="M12.3707 8.82642H12.3086V8.83259H12.3707V8.82642Z" fill="#00B5E8"/>
<path d="M35.1998 21.4697C35.1998 23.9085 34.2352 26.116 32.674 27.7148C31.1129 29.3135 28.9573 30.3021 26.5759 30.3021H21.8181C19.4382 30.3021 17.2833 31.2899 15.7235 32.8872C14.1638 34.4845 13.1992 36.6906 13.1992 39.1286V30.3028C13.1992 27.8626 14.1638 25.6551 15.7249 24.0563C17.2861 22.4575 19.4417 21.4697 21.8231 21.4697H35.199H35.1998Z" fill="#00B5E8"/>
<g style="mix-blend-mode:overlay">
<path d="M35.2016 21.4702C35.2016 23.9087 34.2371 26.1161 32.6759 27.7147C32.5181 27.8763 32.3532 28.0329 32.1826 28.1822C33.6405 26.6009 34.5322 24.4689 34.5322 22.1231H21.1562C19.0169 22.1231 17.0594 22.9203 15.5527 24.2421C15.6086 24.1798 15.6674 24.1182 15.7275 24.0566C17.2887 22.4579 19.4443 21.4702 21.8257 21.4702H35.2016Z" fill="#F2F2F2"/>
</g>
<path d="M35.2005 20.2525H18.0653C17.6909 20.2525 17.3222 20.2264 16.9606 20.1807C15.0215 19.9264 13.282 19.0118 11.9671 17.6652C10.406 16.0664 9.44141 13.8589 9.44141 11.4187H26.5766C28.958 11.4187 31.1136 12.408 32.6747 14.006C33.2062 14.5503 33.6683 15.1649 34.0469 15.8352C34.7808 17.1347 35.1997 18.6436 35.1997 20.2525H35.2005Z" fill="#00B5E8"/>
<path d="M35.2005 20.2525H18.0653C17.6909 20.2525 17.3222 20.2264 16.9606 20.1807C15.0215 19.9264 13.282 19.0118 11.9671 17.6652C10.406 16.0664 9.44141 13.8589 9.44141 11.4187H26.5766C28.958 11.4187 31.1136 12.408 32.6747 14.006C33.2062 14.5503 33.6683 15.1649 34.0469 15.8352C34.7808 17.1347 35.1997 18.6436 35.1997 20.2525H35.2005Z" fill="#00B5E8"/>
<g style="mix-blend-mode:overlay">
<path d="M35.1997 20.2525H34.5918C34.4998 18.8704 34.1 17.5746 33.4581 16.4382C33.0795 15.7678 32.6174 15.1533 32.0859 14.609C30.5248 13.0102 28.3692 12.0217 25.9878 12.0217H9.46193C9.44778 11.8231 9.44141 11.6209 9.44141 11.4187H26.5766C28.958 11.4187 31.1136 12.408 32.6747 14.006C33.2062 14.5503 33.6683 15.1649 34.0469 15.8352C34.7808 17.1347 35.1997 18.6436 35.1997 20.2525Z" fill="#F2F2F2"/>
</g>
<path d="M21.8231 30.3017V35.1676C21.8231 35.2655 21.8217 35.3633 21.8181 35.4597C21.7771 36.7751 21.4537 38.0187 20.9095 39.1276C20.4926 39.977 19.9477 40.7466 19.2973 41.4127C17.7362 43.0114 15.5806 44 13.1992 44V39.1276C13.1992 36.6903 14.1638 34.4835 15.7235 32.8862C17.2833 31.2888 19.4375 30.301 21.8181 30.301H21.8231V30.3017Z" fill="#121212"/>
<path opacity="0.5" d="M21.825 30.3027V31.5746H21.8201C19.4401 31.5746 17.2852 32.5625 15.7255 34.1598C14.1657 35.7571 13.2012 37.9632 13.2012 40.4012V39.1293C13.2012 36.692 14.1657 34.4852 15.7255 32.8879C17.2852 31.2905 19.4394 30.3027 21.8201 30.3027H21.825Z" fill="#121212"/>
<path d="M21.8121 20.2456H21.75V20.2518H21.8121V20.2456Z" fill="#00B5E8"/>
</svg>
