<svg width="17" height="16" viewBox="0 0 17 16" fill="none" xmlns="http://www.w3.org/2000/svg">
<path d="M14.913 2.12601C15.243 2.51601 15.524 2.94801 15.747 3.41301C15.5613 3.59904 15.3408 3.74664 15.098 3.84736C14.8552 3.94808 14.5949 3.99995 14.332 4.00001C13.9747 4.0001 13.6239 3.90445 13.316 3.72301L14.913 2.12601ZM14.206 1.41801L12.609 3.01601C12.3827 2.63411 12.2903 2.18761 12.3465 1.74726C12.4026 1.30692 12.6041 0.897896 12.919 0.585009C13.384 0.808009 13.816 1.08901 14.206 1.41801ZM16.332 6.00001C16.3325 5.46286 16.2609 4.92809 16.119 4.41001C15.619 4.78001 15.001 5.00001 14.332 5.00001C13.7088 5.00014 13.101 4.80615 12.593 4.44501L11.539 5.50001L15.342 9.30301C15.967 8.35501 16.332 7.22001 16.332 6.00001ZM11.332 2.00001C11.332 1.33001 11.551 0.712009 11.922 0.213009C11.404 0.0711576 10.8692 -0.000482594 10.332 9.22828e-06C9.15762 -0.00205525 8.00869 0.342312 7.02903 0.990009L10.832 4.79301L11.886 3.73801C11.5254 3.23022 11.3318 2.6228 11.332 2.00001ZM10.039 7.00001C11.2171 8.31347 11.9817 9.9452 12.237 11.691C13.1841 11.3735 14.0369 10.8246 14.718 10.094L10.832 6.20701L10.039 7.00001ZM10.125 5.50001L9.33203 6.29201C8.01884 5.11411 6.38749 4.34956 4.64203 4.09401C4.9597 3.14733 5.50862 2.29491 6.23903 1.61401L10.125 5.50001ZM1.83203 5.00001C1.43421 5.00001 1.05268 5.15804 0.771371 5.43935C0.490067 5.72065 0.332031 6.10218 0.332031 6.50001V8.00001C0.332031 10.1217 1.17489 12.1566 2.67518 13.6569C4.17547 15.1572 6.2103 16 8.33203 16H9.83203C10.2299 16 10.6114 15.842 10.8927 15.5607C11.174 15.2794 11.332 14.8978 11.332 14.5V13C11.332 10.8783 10.4892 8.84345 8.98889 7.34315C7.4886 5.84286 5.45376 5.00001 3.33203 5.00001H1.83203ZM4.47803 9.14601C4.52448 9.09945 4.57965 9.0625 4.6404 9.0373C4.70114 9.01209 4.76626 8.99912 4.83203 8.99912C4.8978 8.99912 4.96292 9.01209 5.02366 9.0373C5.08441 9.0625 5.13959 9.09945 5.18603 9.14601L7.18603 11.146C7.27992 11.2399 7.33266 11.3672 7.33266 11.5C7.33266 11.6328 7.27992 11.7601 7.18603 11.854C7.09214 11.9479 6.96481 12.0006 6.83203 12.0006C6.69926 12.0006 6.57192 11.9479 6.47803 11.854L4.47803 9.85401C4.43147 9.80756 4.39453 9.75239 4.36932 9.69164C4.34411 9.6309 4.33114 9.56578 4.33114 9.50001C4.33114 9.43424 4.34411 9.36912 4.36932 9.30838C4.39453 9.24763 4.43147 9.19246 4.47803 9.14601Z" fill="#FF9E42"/>
</svg>
