<svg width="32" height="32" viewBox="0 0 32 32" fill="none" xmlns="http://www.w3.org/2000/svg">
<rect width="32" height="32" rx="16" fill="#FF9E42" fill-opacity="0.1"/>
<rect x="0.5" y="0.5" width="31" height="31" rx="15.5" stroke="#121212" stroke-opacity="0.1"/>
<path d="M16.625 21C16.625 21.3452 16.3452 21.625 16 21.625C15.6548 21.625 15.375 21.3452 15.375 21C15.375 20.6548 15.6548 20.375 16 20.375C16.3452 20.375 16.625 20.6548 16.625 21Z" fill="#FF9E42"/>
<path d="M19.334 12.667H12.6673M19.334 12.667C21.1749 12.667 22.6673 14.1594 22.6673 16.0003V21.0003C22.6673 22.8413 21.1749 24.3337 19.334 24.3337H12.6673C10.8264 24.3337 9.33398 22.8413 9.33398 21.0003V16.0003C9.33398 14.1594 10.8264 12.667 12.6673 12.667M19.334 12.667V11.0003C19.334 9.15938 17.8416 7.66699 16.0007 7.66699C14.1597 7.66699 12.6673 9.15938 12.6673 11.0003V12.667" stroke="#FF9E42" stroke-width="1.5" stroke-linecap="round" stroke-linejoin="round"/>
</svg>
