<svg width="32" height="32" viewBox="0 0 32 32" fill="none" xmlns="http://www.w3.org/2000/svg">
<rect width="32" height="32" rx="16" fill="#FF9E42" fill-opacity="0.1"/>
<rect x="0.5" y="0.5" width="31" height="31" rx="15.5" stroke="#121212" stroke-opacity="0.1"/>
<g clip-path="url(#clip0_1_9019)">
<circle cx="2.25" cy="2.25" r="2.25" transform="matrix(1 0 0 -1 13.75 16)" stroke="#FF9E42" stroke-width="1.5" stroke-linejoin="round"/>
<path d="M21.2492 23.4057C22.5435 23.073 23.5 21.8982 23.5 20.5V11.5C23.5 9.84315 22.1569 8.5 20.5 8.5H11.5C9.84315 8.5 8.5 9.84315 8.5 11.5V20.5C8.5 21.8982 9.45649 23.073 10.7508 23.4057M21.2492 23.4057C21.0097 23.4673 20.7587 23.5 20.5 23.5H11.5C11.2413 23.5 10.9903 23.4673 10.7508 23.4057M21.2492 23.4057C21.1989 20.5497 18.868 18.25 16 18.25C13.132 18.25 10.8011 20.5497 10.7508 23.4057" stroke="#FF9E42" stroke-width="1.5"/>
</g>
<defs>
<clipPath id="clip0_1_9019">
<rect width="18" height="18" fill="white" transform="translate(7 7)"/>
</clipPath>
</defs>
</svg>
