<svg width="19" height="18" viewBox="0 0 19 18" fill="none" xmlns="http://www.w3.org/2000/svg">
<path d="M18.0381 0.244246C18.0308 0.208678 18.0135 0.175941 17.9882 0.149872C17.9629 0.123803 17.9308 0.105482 17.8955 0.097057C15.5422 -0.47883 10.1047 1.57337 7.15881 4.52077C6.63337 5.04243 6.15437 5.60893 5.72722 6.21384C4.81877 6.13341 3.91032 6.20057 3.13607 6.53838C0.951527 7.50074 0.31549 10.0118 0.1383 11.092C0.12825 11.1511 0.132041 11.2118 0.149375 11.2692C0.16671 11.3266 0.197115 11.3792 0.238199 11.4228C0.279283 11.4665 0.329927 11.5 0.386146 11.5208C0.442364 11.5415 0.502626 11.5489 0.56219 11.5424L4.07023 11.1551C4.07273 11.4199 4.08869 11.6843 4.11805 11.9474C4.1357 12.1301 4.21673 12.3008 4.34707 12.43L5.70553 13.7864C5.83468 13.9167 6.0052 13.9978 6.18768 14.0157C6.44907 14.0449 6.71178 14.0609 6.97479 14.0635L6.58987 17.5703C6.58345 17.6299 6.59091 17.6902 6.61167 17.7464C6.63243 17.8027 6.66592 17.8533 6.70951 17.8944C6.75311 17.9355 6.80562 17.9659 6.86294 17.9833C6.92026 18.0007 6.98082 18.0046 7.03988 17.9946C8.11708 17.8217 10.6303 17.1851 11.5861 14.9985C11.9237 14.2236 11.9928 13.3187 11.9148 12.4139C12.5206 11.9863 13.0881 11.5067 13.6108 10.9806C16.566 8.03762 18.6046 2.7167 18.0381 0.244246ZM10.6624 7.46978C10.3926 7.19986 10.2088 6.85591 10.1343 6.48142C10.0597 6.10694 10.0979 5.71875 10.2438 5.36595C10.3897 5.01315 10.6369 4.7116 10.9541 4.49943C11.2713 4.28726 11.6442 4.17402 12.0257 4.17402C12.4072 4.17402 12.7801 4.28726 13.0973 4.49943C13.4145 4.7116 13.6617 5.01315 13.8076 5.36595C13.9536 5.71875 13.9917 6.10694 13.9172 6.48142C13.8426 6.85591 13.6588 7.19986 13.389 7.46978C13.2101 7.64913 12.9975 7.79142 12.7636 7.8885C12.5297 7.98558 12.2789 8.03555 12.0257 8.03555C11.7725 8.03555 11.5217 7.98558 11.2878 7.8885C11.0539 7.79142 10.8414 7.64913 10.6624 7.46978Z" fill="#121212" fill-opacity="0.8"/>
<path d="M5.61309 14.7689C5.39291 14.9896 5.03974 15.0757 4.61464 15.1493C3.65958 15.3122 2.81622 14.4861 2.98779 13.5198C3.05328 13.1534 3.24694 12.6399 3.36748 12.5192C3.39383 12.4933 3.41136 12.4598 3.4176 12.4234C3.42383 12.387 3.41845 12.3496 3.40222 12.3164C3.38598 12.2832 3.35972 12.256 3.32716 12.2387C3.29459 12.2213 3.25739 12.2146 3.22083 12.2196C2.68675 12.285 2.18988 12.5274 1.80933 12.9081C0.86472 13.8544 0.775522 17.3656 0.775522 17.3656C0.775522 17.3656 4.28557 17.2763 5.23019 16.33C5.61173 15.9494 5.85417 15.4514 5.91846 14.9161C5.93332 14.748 5.72881 14.6478 5.61309 14.7689Z" fill="#121212" fill-opacity="0.8"/>
</svg>
