<svg width="32" height="32" viewBox="0 0 32 32" fill="none" xmlns="http://www.w3.org/2000/svg">
<rect width="32" height="32" rx="16" fill="#FF9E42" fill-opacity="0.1"/>
<rect x="0.5" y="0.5" width="31" height="31" rx="15.5" stroke="#121212" stroke-opacity="0.1"/>
<path fill-rule="evenodd" clip-rule="evenodd" d="M8.5 20.3337V11.667C8.5 9.45785 10.2909 7.66699 12.5 7.66699H19.5C21.7091 7.66699 23.5 9.45785 23.5 11.667V16.0101C23.5 16.3616 23.4538 16.7082 23.3646 17.042H20.1667C17.9805 17.042 16.2083 18.8142 16.2083 21.0003V24.1983C15.8746 24.2874 15.5279 24.3337 15.1765 24.3337H12.5C10.2909 24.3337 8.5 22.5428 8.5 20.3337ZM17.4583 23.619C17.6524 23.4842 17.8355 23.3315 18.0049 23.1621L22.3284 18.8386C22.4978 18.6691 22.6505 18.4861 22.7853 18.292H20.1667C18.6709 18.292 17.4583 19.5046 17.4583 21.0003L17.4583 23.619ZM12.0417 11.8337C12.0417 11.4885 12.3215 11.2087 12.6667 11.2087H19.3333C19.6785 11.2087 19.9583 11.4885 19.9583 11.8337C19.9583 12.1788 19.6785 12.4587 19.3333 12.4587H12.6667C12.3215 12.4587 12.0417 12.1788 12.0417 11.8337ZM12.6667 14.542C12.3215 14.542 12.0417 14.8218 12.0417 15.167C12.0417 15.5122 12.3215 15.792 12.6667 15.792H16C16.3452 15.792 16.625 15.5122 16.625 15.167C16.625 14.8218 16.3452 14.542 16 14.542H12.6667Z" fill="#FF9E42"/>
</svg>
