<svg width="32" height="36" viewBox="0 0 32 36" fill="none" xmlns="http://www.w3.org/2000/svg">
<rect width="32" height="36" rx="16" fill="#FF9E42" fill-opacity="0.1"/>
<rect x="0.5" y="0.5" width="31" height="35" rx="15.5" stroke="#121212" stroke-opacity="0.1"/>
<path fill-rule="evenodd" clip-rule="evenodd" d="M21.4681 12.167H22.666C23.5865 12.167 24.3327 12.9132 24.3327 13.8337V14.667C24.3327 15.5875 23.5865 16.3337 22.666 16.3337H9.33268C8.41221 16.3337 7.66602 15.5875 7.66602 14.667V13.8337C7.66602 12.9132 8.41221 12.167 9.33268 12.167H10.5306C10.4297 11.9087 10.3743 11.6277 10.3743 11.3337C10.3743 10.068 11.4004 9.04199 12.666 9.04199C14.0656 9.04199 15.2955 9.76835 15.9993 10.8646C16.7032 9.76834 17.9331 9.04199 19.3327 9.04199C20.5983 9.04199 21.6243 10.068 21.6243 11.3337C21.6243 11.6277 21.569 11.9087 21.4681 12.167ZM12.0409 12.167H15.2437C14.8922 11.079 13.871 10.292 12.666 10.292C12.0907 10.292 11.6243 10.7584 11.6243 11.3337C11.6243 11.6744 11.788 11.9769 12.0409 12.167ZM19.9578 12.167C20.2107 11.9769 20.3743 11.6744 20.3743 11.3337C20.3743 10.7584 19.908 10.292 19.3327 10.292C18.1277 10.292 17.1065 11.079 16.755 12.167H19.9578ZM22.666 17.5837H9.33268V24.667C9.33268 25.5875 10.0789 26.3337 10.9993 26.3337H20.9993C21.9198 26.3337 22.666 25.5875 22.666 24.667V17.5837Z" fill="#FE8C21"/>
</svg>
