<svg width="40" height="40" viewBox="0 0 40 40" fill="none" xmlns="http://www.w3.org/2000/svg">
<rect width="40" height="40" rx="20" fill="#F3F3F3"/>
<rect x="0.5" y="0.5" width="39" height="39" rx="19.5" stroke="white" stroke-opacity="0.1"/>
<path d="M27.4211 12.7035C27.415 12.6739 27.4005 12.6466 27.3795 12.6249C27.3584 12.6032 27.3316 12.5879 27.3022 12.5809C25.3411 12.101 20.8099 13.8111 18.355 16.2673C17.9171 16.702 17.518 17.1741 17.162 17.6782C16.405 17.6112 15.6479 17.6671 15.0027 17.9487C13.1823 18.7506 12.6522 20.8432 12.5046 21.7433C12.4962 21.7926 12.4994 21.8431 12.5138 21.891C12.5282 21.9388 12.5536 21.9827 12.5878 22.019C12.6221 22.0554 12.6643 22.0833 12.7111 22.1006C12.758 22.1179 12.8082 22.1241 12.8578 22.1187L15.7812 21.7959C15.7833 22.0165 15.7966 22.2369 15.821 22.4561C15.8357 22.6084 15.9033 22.7507 16.0119 22.8583L17.1439 23.9887C17.2516 24.0972 17.3937 24.1648 17.5457 24.1797C17.7635 24.2041 17.9825 24.2174 18.2016 24.2196L17.8809 27.1419C17.8755 27.1916 17.8817 27.2418 17.899 27.2887C17.9163 27.3355 17.9443 27.3778 17.9806 27.412C18.0169 27.4463 18.0607 27.4716 18.1084 27.4861C18.1562 27.5006 18.2067 27.5038 18.2559 27.4955C19.1536 27.3514 21.2479 26.8209 22.0444 24.9988C22.3257 24.353 22.3833 23.5989 22.3183 22.8449C22.8232 22.4886 23.2961 22.0889 23.7316 21.6505C26.1943 19.198 27.8932 14.7639 27.4211 12.7035ZM21.2747 18.7248C21.0498 18.4999 20.8966 18.2133 20.8345 17.9012C20.7724 17.5891 20.8042 17.2656 20.9258 16.9716C21.0474 16.6776 21.2534 16.4263 21.5177 16.2495C21.7821 16.0727 22.0928 15.9783 22.4107 15.9783C22.7287 15.9783 23.0394 16.0727 23.3038 16.2495C23.5681 16.4263 23.7741 16.6776 23.8957 16.9716C24.0173 17.2656 24.0491 17.5891 23.987 17.9012C23.9249 18.2133 23.7717 18.4999 23.5468 18.7248C23.3977 18.8743 23.2206 18.9928 23.0257 19.0737C22.8307 19.1546 22.6218 19.1963 22.4107 19.1963C22.1997 19.1963 21.9908 19.1546 21.7958 19.0737C21.6009 18.9928 21.4238 18.8743 21.2747 18.7248Z" fill="#121212"/>
<path d="M17.0669 24.8074C16.8834 24.9914 16.5891 25.0631 16.2349 25.1244C15.439 25.2601 14.7362 24.5718 14.8791 23.7665C14.9337 23.4612 15.0951 23.0332 15.1956 22.9327C15.2175 22.9111 15.2321 22.8832 15.2373 22.8529C15.2425 22.8225 15.238 22.7913 15.2245 22.7637C15.211 22.736 15.1891 22.7134 15.162 22.6989C15.1348 22.6844 15.1038 22.6788 15.0733 22.683C14.6283 22.7375 14.2142 22.9395 13.8971 23.2567C13.1099 24.0453 13.0356 26.9713 13.0356 26.9713C13.0356 26.9713 15.9606 26.8969 16.7478 26.1084C17.0658 25.7912 17.2678 25.3761 17.3214 24.93C17.3338 24.79 17.1633 24.7065 17.0669 24.8074Z" fill="#121212"/>
</svg>
