<svg width="60" height="60" viewBox="0 0 60 60" fill="none" xmlns="http://www.w3.org/2000/svg">
<g filter="url(#filter0_dd_3731_14262)">
<rect x="10" y="6" width="40" height="40" rx="20" fill="url(#paint0_linear_3731_14262)" shape-rendering="crispEdges"/>
<rect x="10" y="6" width="40" height="40" rx="20" fill="url(#paint1_radial_3731_14262)" fill-opacity="0.4" shape-rendering="crispEdges"/>
<rect x="10.5" y="6.5" width="39" height="39" rx="19.5" stroke="white" stroke-opacity="0.1" shape-rendering="crispEdges"/>
<path d="M37.4211 18.7035C37.415 18.6739 37.4005 18.6466 37.3795 18.6249C37.3584 18.6032 37.3316 18.5879 37.3022 18.5809C35.3411 18.101 30.8099 19.8111 28.355 22.2673C27.9171 22.702 27.518 23.1741 27.162 23.6782C26.405 23.6112 25.6479 23.6671 25.0027 23.9487C23.1823 24.7506 22.6522 26.8432 22.5046 27.7433C22.4962 27.7926 22.4994 27.8431 22.5138 27.891C22.5282 27.9388 22.5536 27.9827 22.5878 28.019C22.6221 28.0554 22.6643 28.0833 22.7111 28.1006C22.758 28.1179 22.8082 28.1241 22.8578 28.1187L25.7812 27.7959C25.7833 28.0165 25.7966 28.2369 25.821 28.4561C25.8357 28.6084 25.9033 28.7507 26.0119 28.8583L27.1439 29.9887C27.2516 30.0972 27.3937 30.1648 27.5457 30.1797C27.7635 30.2041 27.9825 30.2174 28.2016 30.2196L27.8809 33.1419C27.8755 33.1916 27.8817 33.2418 27.899 33.2887C27.9163 33.3355 27.9443 33.3778 27.9806 33.412C28.0169 33.4463 28.0607 33.4716 28.1084 33.4861C28.1562 33.5006 28.2067 33.5038 28.2559 33.4955C29.1536 33.3514 31.2479 32.8209 32.0444 30.9988C32.3257 30.353 32.3833 29.5989 32.3183 28.8449C32.8232 28.4886 33.2961 28.0889 33.7316 27.6505C36.1943 25.198 37.8932 20.7639 37.4211 18.7035ZM31.2747 24.7248C31.0498 24.4999 30.8966 24.2133 30.8345 23.9012C30.7724 23.5891 30.8042 23.2656 30.9258 22.9716C31.0474 22.6776 31.2534 22.4263 31.5177 22.2495C31.7821 22.0727 32.0928 21.9783 32.4107 21.9783C32.7287 21.9783 33.0394 22.0727 33.3038 22.2495C33.5681 22.4263 33.7741 22.6776 33.8957 22.9716C34.0173 23.2656 34.0491 23.5891 33.987 23.9012C33.9249 24.2133 33.7717 24.4999 33.5468 24.7248C33.3977 24.8743 33.2206 24.9928 33.0257 25.0737C32.8307 25.1546 32.6218 25.1963 32.4107 25.1963C32.1997 25.1963 31.9908 25.1546 31.7958 25.0737C31.6009 24.9928 31.4238 24.8743 31.2747 24.7248Z" fill="#0B0C1E"/>
<path d="M27.0669 30.8074C26.8834 30.9914 26.5891 31.0631 26.2349 31.1244C25.439 31.2601 24.7362 30.5718 24.8791 29.7665C24.9337 29.4612 25.0951 29.0332 25.1956 28.9327C25.2175 28.9111 25.2321 28.8832 25.2373 28.8529C25.2425 28.8225 25.238 28.7913 25.2245 28.7637C25.211 28.736 25.1891 28.7134 25.162 28.6989C25.1348 28.6844 25.1038 28.6788 25.0733 28.683C24.6283 28.7375 24.2142 28.9395 23.8971 29.2567C23.1099 30.0453 23.0356 32.9713 23.0356 32.9713C23.0356 32.9713 25.9606 32.8969 26.7478 32.1084C27.0658 31.7912 27.2678 31.3761 27.3214 30.93C27.3338 30.79 27.1633 30.7065 27.0669 30.8074Z" fill="#0B0C1E"/>
</g>
<defs>
<filter id="filter0_dd_3731_14262" x="0" y="0" width="60" height="60" filterUnits="userSpaceOnUse" color-interpolation-filters="sRGB">
<feFlood flood-opacity="0" result="BackgroundImageFix"/>
<feColorMatrix in="SourceAlpha" type="matrix" values="0 0 0 0 0 0 0 0 0 0 0 0 0 0 0 0 0 0 127 0" result="hardAlpha"/>
<feOffset dy="4"/>
<feGaussianBlur stdDeviation="5"/>
<feComposite in2="hardAlpha" operator="out"/>
<feColorMatrix type="matrix" values="0 0 0 0 1 0 0 0 0 1 0 0 0 0 1 0 0 0 0.1 0"/>
<feBlend mode="normal" in2="BackgroundImageFix" result="effect1_dropShadow_3731_14262"/>
<feColorMatrix in="SourceAlpha" type="matrix" values="0 0 0 0 0 0 0 0 0 0 0 0 0 0 0 0 0 0 127 0" result="hardAlpha"/>
<feOffset dy="2"/>
<feGaussianBlur stdDeviation="4"/>
<feComposite in2="hardAlpha" operator="out"/>
<feColorMatrix type="matrix" values="0 0 0 0 1 0 0 0 0 1 0 0 0 0 1 0 0 0 0.1 0"/>
<feBlend mode="normal" in2="effect1_dropShadow_3731_14262" result="effect2_dropShadow_3731_14262"/>
<feBlend mode="normal" in="SourceGraphic" in2="effect2_dropShadow_3731_14262" result="shape"/>
</filter>
<linearGradient id="paint0_linear_3731_14262" x1="30" y1="6" x2="30" y2="46" gradientUnits="userSpaceOnUse">
<stop stop-color="#B3B3B3"/>
<stop offset="1" stop-color="#F1F1FF"/>
</linearGradient>
<radialGradient id="paint1_radial_3731_14262" cx="0" cy="0" r="1" gradientUnits="userSpaceOnUse" gradientTransform="translate(30 26) scale(20 19.8345)">
<stop stop-opacity="0.1"/>
<stop offset="1" stop-opacity="0.1"/>
</radialGradient>
</defs>
</svg>
