<svg width="20" height="20" viewBox="0 0 20 20" fill="none" xmlns="http://www.w3.org/2000/svg">
<path fill-rule="evenodd" clip-rule="evenodd" d="M9.29358 3.33325H10.7077C11.4887 3.33325 12.1219 3.93021 12.1219 4.66659C12.1219 5.50927 13.0235 6.04502 13.7636 5.64212L13.8388 5.60121C14.5152 5.23302 15.38 5.45152 15.7705 6.08924L16.4776 7.24394C16.8681 7.88166 16.6364 8.69712 15.96 9.06531C15.2195 9.46839 15.2195 10.5315 15.96 10.9345C16.6364 11.3027 16.8681 12.1182 16.4776 12.7559L15.7705 13.9106C15.38 14.5483 14.5152 14.7668 13.8388 14.3986L13.7636 14.3577C13.0235 13.9548 12.1219 14.4906 12.1219 15.3333C12.1219 16.0696 11.4887 16.6666 10.7077 16.6666H9.29358C8.51257 16.6666 7.87943 16.0696 7.87943 15.3333C7.87943 14.4906 6.97781 13.9548 6.23769 14.3577L6.16251 14.3986C5.48614 14.7668 4.62126 14.5483 4.23075 13.9106L3.52368 12.7559C3.13317 12.1182 3.36492 11.3027 4.04129 10.9345C4.78177 10.5315 4.78177 9.46838 4.04129 9.0653C3.36492 8.69711 3.13318 7.88165 3.52368 7.24393L4.23075 6.08923C4.62126 5.45151 5.48614 5.23301 6.16251 5.6012L6.23769 5.64212C6.97781 6.04501 7.87943 5.50926 7.87943 4.66659C7.87943 3.93021 8.51257 3.33325 9.29358 3.33325ZM10.0007 12.4999C11.3814 12.4999 12.5007 11.3806 12.5007 9.99992C12.5007 8.61921 11.3814 7.49992 10.0007 7.49992C8.61995 7.49992 7.50066 8.61921 7.50066 9.99992C7.50066 11.3806 8.61995 12.4999 10.0007 12.4999Z" fill="#121212"/>
</svg>
