<svg width="32" height="32" viewBox="0 0 32 32" fill="none" xmlns="http://www.w3.org/2000/svg">
<rect width="32" height="32" rx="16" fill="#BA6414" fill-opacity="0.1"/>
<rect x="0.5" y="0.5" width="31" height="31" rx="15.5" stroke="#BA6414" stroke-opacity="0.1"/>
<path fill-rule="evenodd" clip-rule="evenodd" d="M15.2936 9.33398H16.7077C17.4887 9.33398 18.1219 9.93094 18.1219 10.6673C18.1219 11.51 19.0235 12.0457 19.7636 11.6429L19.8388 11.6019C20.5152 11.2337 21.38 11.4522 21.7705 12.09L22.4776 13.2447C22.8681 13.8824 22.6364 14.6978 21.96 15.066C21.2195 15.4691 21.2195 16.5322 21.96 16.9353C22.6364 17.3035 22.8681 18.1189 22.4776 18.7566L21.7705 19.9113C21.38 20.5491 20.5152 20.7676 19.8388 20.3994L19.7636 20.3584C19.0235 19.9556 18.1219 20.4913 18.1219 21.334C18.1219 22.0704 17.4887 22.6673 16.7077 22.6673H15.2936C14.5126 22.6673 13.8794 22.0704 13.8794 21.334C13.8794 20.4913 12.9778 19.9556 12.2377 20.3584L12.1625 20.3994C11.4861 20.7676 10.6213 20.5491 10.2308 19.9113L9.52368 18.7566C9.13317 18.1189 9.36492 17.3035 10.0413 16.9353C10.7818 16.5322 10.7818 15.4691 10.0413 15.066C9.36492 14.6978 9.13318 13.8824 9.52368 13.2447L10.2308 12.09C10.6213 11.4522 11.4861 11.2337 12.1625 11.6019L12.2377 11.6428C12.9778 12.0457 13.8794 11.51 13.8794 10.6673C13.8794 9.93094 14.5126 9.33398 15.2936 9.33398ZM16.0007 18.5007C17.3814 18.5007 18.5007 17.3814 18.5007 16.0007C18.5007 14.6199 17.3814 13.5007 16.0007 13.5007C14.6199 13.5007 13.5007 14.6199 13.5007 16.0007C13.5007 17.3814 14.6199 18.5007 16.0007 18.5007Z" fill="#BA6414"/>
</svg>
