<svg width="25" height="24" viewBox="0 0 25 24" fill="none" xmlns="http://www.w3.org/2000/svg">
<path fill-rule="evenodd" clip-rule="evenodd" d="M12.1327 1.25C10.0616 1.25 8.38268 2.92893 8.38268 5V6.0006C6.48777 6.03323 4.87134 7.39383 4.5209 9.26285L3.0209 17.2628C2.55934 19.7245 4.44784 22 6.95239 22H17.313C19.8175 22 21.706 19.7245 21.2445 17.2628L19.7445 9.26285C19.394 7.39383 17.7776 6.03323 15.8827 6.0006V5C15.8827 2.92893 14.2038 1.25 12.1327 1.25ZM14.3827 6V5C14.3827 3.75736 13.3753 2.75 12.1327 2.75C10.89 2.75 9.88268 3.75736 9.88268 5V6H14.3827Z" fill="white" fill-opacity="0.8"/>
</svg>
