<svg width="20" height="21" viewBox="0 0 20 21" fill="none" xmlns="http://www.w3.org/2000/svg">
<path fill-rule="evenodd" clip-rule="evenodd" d="M10.1327 0.25C8.06162 0.25 6.38268 1.92893 6.38268 4V5.0006C4.48777 5.03323 2.87134 6.39383 2.5209 8.26285L1.0209 16.2628C0.559339 18.7245 2.44784 21 4.95239 21H15.313C17.8175 21 19.706 18.7245 19.2445 16.2628L17.7445 8.26285C17.394 6.39383 15.7776 5.03323 13.8827 5.0006V4C13.8827 1.92893 12.2038 0.25 10.1327 0.25ZM12.3827 5V4C12.3827 2.75736 11.3753 1.75 10.1327 1.75C8.89004 1.75 7.88268 2.75736 7.88268 4V5H12.3827Z" fill="#121212" fill-opacity="0.8"/>
</svg>
