<svg width="21" height="20" viewBox="0 0 21 20" fill="none" xmlns="http://www.w3.org/2000/svg">
<path fill-rule="evenodd" clip-rule="evenodd" d="M3.51588 2.50191C5.10364 1.09977 7.14015 0.194091 9.38245 0.027832V9.25013H5.93779C5.79183 6.72128 4.91262 4.39491 3.51588 2.50191ZM4.43496 9.25013C4.297 7.13881 3.581 5.19685 2.45379 3.59365C1.15457 5.14919 0.31917 7.10553 0.160156 9.25013H4.43496ZM0.160156 10.7501H4.43496C4.297 12.8614 3.581 14.8034 2.45378 16.4066C1.15457 14.8511 0.31917 12.8947 0.160156 10.7501ZM5.93779 10.7501H9.38245V19.9724C7.14015 19.8062 5.10363 18.9005 3.51587 17.4983C4.91262 15.6053 5.79183 13.279 5.93779 10.7501ZM10.8825 10.7501V19.9724C13.1248 19.8062 15.1613 18.9005 16.749 17.4983C15.3523 15.6053 14.4731 13.279 14.3271 10.7501H10.8825ZM15.83 10.7501C15.9679 12.8614 16.6839 14.8034 17.8111 16.4066C19.1103 14.8511 19.9457 12.8947 20.1048 10.7501H15.83ZM20.1048 9.25013H15.83C15.9679 7.13881 16.6839 5.19685 17.8111 3.59365C19.1103 5.14919 19.9457 7.10553 20.1048 9.25013ZM14.3271 9.25013H10.8825V0.027832C13.1248 0.194091 15.1613 1.09977 16.749 2.50191C15.3523 4.39491 14.4731 6.72128 14.3271 9.25013Z" fill="white"/>
</svg>
