<svg width="25" height="24" viewBox="0 0 25 24" fill="none" xmlns="http://www.w3.org/2000/svg">
<path fill-rule="evenodd" clip-rule="evenodd" d="M5.51588 4.50191C7.10364 3.09977 9.14015 2.19409 11.3825 2.02783V11.2501H7.93779C7.79183 8.72128 6.91262 6.39491 5.51588 4.50191ZM6.43496 11.2501C6.297 9.13881 5.581 7.19685 4.45379 5.59365C3.15457 7.14919 2.31917 9.10553 2.16016 11.2501H6.43496ZM2.16016 12.7501H6.43496C6.297 14.8614 5.581 16.8034 4.45378 18.4066C3.15457 16.8511 2.31917 14.8947 2.16016 12.7501ZM7.93779 12.7501H11.3825V21.9724C9.14015 21.8062 7.10363 20.9005 5.51587 19.4983C6.91262 17.6053 7.79183 15.279 7.93779 12.7501ZM12.8825 12.7501V21.9724C15.1248 21.8062 17.1613 20.9005 18.749 19.4983C17.3523 17.6053 16.4731 15.279 16.3271 12.7501H12.8825ZM17.83 12.7501C17.9679 14.8614 18.6839 16.8034 19.8111 18.4066C21.1103 16.8511 21.9457 14.8947 22.1048 12.7501H17.83ZM22.1048 11.2501H17.83C17.9679 9.13881 18.6839 7.19685 19.8111 5.59365C21.1103 7.14919 21.9457 9.10553 22.1048 11.2501ZM16.3271 11.2501H12.8825V2.02783C15.1248 2.19409 17.1613 3.09977 18.749 4.50191C17.3523 6.39491 16.4731 8.72128 16.3271 11.2501Z" fill="#121212"/>
</svg>
