<svg width="390" height="96" viewBox="0 0 390 96" fill="none" xmlns="http://www.w3.org/2000/svg">
<path d="M230.75 7.57895C227.128 2.80442 221.48 0 215.487 0H174.22C168.445 0 163.038 2.83217 159.75 7.57895C156.462 12.3257 151.055 15.1579 145.28 15.1579H10C4.47715 15.1579 0 20.8133 0 27.7895V83.3684C0 90.3446 4.47715 96 10 96H380C385.523 96 390 90.3446 390 83.3684V27.7895C390 20.8133 385.523 15.1579 380 15.1579H246.013C240.02 15.1579 234.372 12.3535 230.75 7.57895Z" fill="white"/>
<path d="M174.22 0.5H215.486C221.141 0.5 226.48 3.06326 230.016 7.45117L230.352 7.88086C234.068 12.78 239.864 15.6582 246.014 15.6582H380C385.144 15.6582 389.5 20.974 389.5 27.7891V83.3682C389.5 90.1834 385.144 95.5 380 95.5H10C4.85588 95.5 0.5 90.1834 0.5 83.3682V27.7891C0.500175 20.974 4.85598 15.6582 10 15.6582H145.28C151.033 15.6582 156.432 12.9245 159.838 8.31543L160.161 7.86328C163.356 3.25153 168.609 0.5 174.22 0.5Z" stroke="#121212" stroke-opacity="0.05"/>
</svg>
