<svg width="20" height="20" viewBox="0 0 20 20" fill="none" xmlns="http://www.w3.org/2000/svg">
<path fill-rule="evenodd" clip-rule="evenodd" d="M8.26795 2.14279C9.33975 1.50807 10.6603 1.50807 11.732 2.14279L15.7679 4.53285C16.8397 5.16757 17.5 6.34058 17.5 7.61002V12.3901C17.5 13.6596 16.8397 14.8326 15.7679 15.4673L15.2509 15.7735L11.732 17.8574C10.6603 18.4921 9.33975 18.4921 8.26795 17.8574L4.74913 15.7735L4.23205 15.4673C3.16025 14.8326 2.5 13.6596 2.5 12.3901V7.61002C2.5 6.34058 3.16025 5.16757 4.23205 4.53285L8.26795 2.14279ZM13.4126 12.6702C12.5191 12.0477 11.3192 11.6667 10 11.6667C8.68076 11.6667 7.48086 12.0477 6.58736 12.6702C6.15855 12.9689 6.24835 13.5824 6.69648 13.8513L9.57125 15.5762C9.83516 15.7345 10.1648 15.7345 10.4287 15.5762L13.3035 13.8513C13.7517 13.5824 13.8414 12.9689 13.4126 12.6702ZM10 5.00008C11.3807 5.00008 12.5 6.11937 12.5 7.50008C12.5 8.88079 11.3807 10.0001 10 10.0001C8.61929 10.0001 7.5 8.88079 7.5 7.50008C7.5 6.11937 8.61929 5.00008 10 5.00008Z" fill="#121212"/>
</svg>
