<svg width="32" height="32" viewBox="0 0 32 32" fill="none" xmlns="http://www.w3.org/2000/svg">
<rect width="32" height="32" rx="16" fill="#FF9E42" fill-opacity="0.1"/>
<rect x="0.5" y="0.5" width="31" height="31" rx="15.5" stroke="#121212" stroke-opacity="0.1"/>
<path fill-rule="evenodd" clip-rule="evenodd" d="M10.9993 9.33301C9.1584 9.33301 7.66602 10.8254 7.66602 12.6663V19.333C7.66602 21.174 9.1584 22.6663 10.9993 22.6663H20.9993C22.8403 22.6663 24.3327 21.174 24.3327 19.333V12.6663C24.3327 10.8254 22.8403 9.33301 20.9993 9.33301H10.9993ZM15.9993 17.6663C16.9198 17.6663 17.666 16.9201 17.666 15.9997C17.666 15.0792 16.9198 14.333 15.9993 14.333C15.0789 14.333 14.3327 15.0792 14.3327 15.9997C14.3327 16.9201 15.0789 17.6663 15.9993 17.6663ZM11.416 12.2497C11.416 12.7099 11.0429 13.083 10.5827 13.083C10.1224 13.083 9.74935 12.7099 9.74935 12.2497C9.74935 11.7894 10.1224 11.4163 10.5827 11.4163C11.0429 11.4163 11.416 11.7894 11.416 12.2497ZM21.416 13.083C21.8763 13.083 22.2493 12.7099 22.2493 12.2497C22.2493 11.7894 21.8763 11.4163 21.416 11.4163C20.9558 11.4163 20.5827 11.7894 20.5827 12.2497C20.5827 12.7099 20.9558 13.083 21.416 13.083ZM11.416 19.7497C11.416 20.2099 11.0429 20.583 10.5827 20.583C10.1224 20.583 9.74935 20.2099 9.74935 19.7497C9.74935 19.2894 10.1224 18.9163 10.5827 18.9163C11.0429 18.9163 11.416 19.2894 11.416 19.7497ZM21.416 20.583C21.8763 20.583 22.2493 20.2099 22.2493 19.7497C22.2493 19.2894 21.8763 18.9163 21.416 18.9163C20.9558 18.9163 20.5827 19.2894 20.5827 19.7497C20.5827 20.2099 20.9558 20.583 21.416 20.583Z" fill="#FF9E42"/>
</svg>
