<svg width="17" height="22" viewBox="0 0 17 22" fill="none" xmlns="http://www.w3.org/2000/svg">
<path d="M6.41624 5.70124C7.56899 3.90349 8.25149 2.24299 8.60699 1.06849C8.74349 0.618489 9.31949 0.434739 9.66149 0.757239C14.8162 5.61799 16.5015 9.32974 16.8367 13.6182C17.0827 17.7665 15.0442 21.458 9.57149 21.458C4.43399 21.458 0.641242 17.8722 1.15649 12.188C1.46549 8.79199 2.78624 6.20374 3.84149 4.66324C4.16999 4.18399 4.85474 4.17724 5.23349 4.61824L6.17774 5.71774C6.24299 5.79349 6.36224 5.78524 6.41624 5.70124Z" fill="url(#paint0_radial_3491_11973)"/>
<path d="M6.41624 5.70124C7.56899 3.90349 8.25149 2.24299 8.60699 1.06849C8.74349 0.618489 9.31949 0.434739 9.66149 0.757239C14.8162 5.61799 16.5015 9.32974 16.8367 13.6182C17.0827 17.7665 15.0442 21.458 9.57149 21.458C4.43399 21.458 0.641242 17.8722 1.15649 12.188C1.46549 8.79199 2.78624 6.20374 3.84149 4.66324C4.16999 4.18399 4.85474 4.17724 5.23349 4.61824L6.17774 5.71774C6.24299 5.79349 6.36224 5.78524 6.41624 5.70124Z" fill="url(#paint1_radial_3491_11973)"/>
<path d="M6.41624 5.70124C7.56899 3.90349 8.25149 2.24299 8.60699 1.06849C8.74349 0.618489 9.31949 0.434739 9.66149 0.757239C14.8162 5.61799 16.5015 9.32974 16.8367 13.6182C17.0827 17.7665 15.0442 21.458 9.57149 21.458C4.43399 21.458 0.641242 17.8722 1.15649 12.188C1.46549 8.79199 2.78624 6.20374 3.84149 4.66324C4.16999 4.18399 4.85474 4.17724 5.23349 4.61824L6.17774 5.71774C6.24299 5.79349 6.36224 5.78524 6.41624 5.70124Z" fill="url(#paint2_linear_3491_11973)"/>
<path d="M6.41624 5.70124C7.56899 3.90349 8.25149 2.24299 8.60699 1.06849C8.74349 0.618489 9.31949 0.434739 9.66149 0.757239C14.8162 5.61799 16.5015 9.32974 16.8367 13.6182C17.0827 17.7665 15.0442 21.458 9.57149 21.458C4.43399 21.458 0.641242 17.8722 1.15649 12.188C1.46549 8.79199 2.78624 6.20374 3.84149 4.66324C4.16999 4.18399 4.85474 4.17724 5.23349 4.61824L6.17774 5.71774C6.24299 5.79349 6.36224 5.78524 6.41624 5.70124Z" fill="url(#paint3_radial_3491_11973)"/>
<path d="M6.41624 5.70124C7.56899 3.90349 8.25149 2.24299 8.60699 1.06849C8.74349 0.618489 9.31949 0.434739 9.66149 0.757239C14.8162 5.61799 16.5015 9.32974 16.8367 13.6182C17.0827 17.7665 15.0442 21.458 9.57149 21.458C4.43399 21.458 0.641242 17.8722 1.15649 12.188C1.46549 8.79199 2.78624 6.20374 3.84149 4.66324C4.16999 4.18399 4.85474 4.17724 5.23349 4.61824L6.17774 5.71774C6.24299 5.79349 6.36224 5.78524 6.41624 5.70124Z" fill="url(#paint4_radial_3491_11973)"/>
<path d="M6.41624 5.70124C7.56899 3.90349 8.25149 2.24299 8.60699 1.06849C8.74349 0.618489 9.31949 0.434739 9.66149 0.757239C14.8162 5.61799 16.5015 9.32974 16.8367 13.6182C17.0827 17.7665 15.0442 21.458 9.57149 21.458C4.43399 21.458 0.641242 17.8722 1.15649 12.188C1.46549 8.79199 2.78624 6.20374 3.84149 4.66324C4.16999 4.18399 4.85474 4.17724 5.23349 4.61824L6.17774 5.71774C6.24299 5.79349 6.36224 5.78524 6.41624 5.70124Z" fill="url(#paint5_radial_3491_11973)"/>
<path d="M6.41624 5.70124C7.56899 3.90349 8.25149 2.24299 8.60699 1.06849C8.74349 0.618489 9.31949 0.434739 9.66149 0.757239C14.8162 5.61799 16.5015 9.32974 16.8367 13.6182C17.0827 17.7665 15.0442 21.458 9.57149 21.458C4.43399 21.458 0.641242 17.8722 1.15649 12.188C1.46549 8.79199 2.78624 6.20374 3.84149 4.66324C4.16999 4.18399 4.85474 4.17724 5.23349 4.61824L6.17774 5.71774C6.24299 5.79349 6.36224 5.78524 6.41624 5.70124Z" fill="url(#paint6_radial_3491_11973)"/>
<path d="M6.41624 5.70124C7.56899 3.90349 8.25149 2.24299 8.60699 1.06849C8.74349 0.618489 9.31949 0.434739 9.66149 0.757239C14.8162 5.61799 16.5015 9.32974 16.8367 13.6182C17.0827 17.7665 15.0442 21.458 9.57149 21.458C4.43399 21.458 0.641242 17.8722 1.15649 12.188C1.46549 8.79199 2.78624 6.20374 3.84149 4.66324C4.16999 4.18399 4.85474 4.17724 5.23349 4.61824L6.17774 5.71774C6.24299 5.79349 6.36224 5.78524 6.41624 5.70124Z" fill="url(#paint7_radial_3491_11973)"/>
<g filter="url(#filter0_i_3491_11973)">
<path d="M4.63355 13.9078C5.61005 11.5828 7.6148 9.01103 8.96855 7.61528C9.15215 7.42747 9.40214 7.31926 9.66473 7.31393C9.92731 7.3086 10.1815 7.40658 10.3726 7.58678C12.9683 9.97853 13.7498 12.1408 14.4128 14.6578C15.1028 17.2768 14.4128 21.4963 9.22205 21.4963C4.75205 21.4963 3.20255 17.3128 4.63355 13.9078Z" fill="url(#paint8_radial_3491_11973)"/>
<path d="M4.63355 13.9078C5.61005 11.5828 7.6148 9.01103 8.96855 7.61528C9.15215 7.42747 9.40214 7.31926 9.66473 7.31393C9.92731 7.3086 10.1815 7.40658 10.3726 7.58678C12.9683 9.97853 13.7498 12.1408 14.4128 14.6578C15.1028 17.2768 14.4128 21.4963 9.22205 21.4963C4.75205 21.4963 3.20255 17.3128 4.63355 13.9078Z" fill="url(#paint9_radial_3491_11973)"/>
<path d="M4.63355 13.9078C5.61005 11.5828 7.6148 9.01103 8.96855 7.61528C9.15215 7.42747 9.40214 7.31926 9.66473 7.31393C9.92731 7.3086 10.1815 7.40658 10.3726 7.58678C12.9683 9.97853 13.7498 12.1408 14.4128 14.6578C15.1028 17.2768 14.4128 21.4963 9.22205 21.4963C4.75205 21.4963 3.20255 17.3128 4.63355 13.9078Z" fill="url(#paint10_radial_3491_11973)"/>
</g>
<path d="M4.63355 13.9078C5.61005 11.5828 7.6148 9.01103 8.96855 7.61528C9.15215 7.42747 9.40214 7.31926 9.66473 7.31393C9.92731 7.3086 10.1815 7.40658 10.3726 7.58678C12.9683 9.97853 13.7498 12.1408 14.4128 14.6578C15.1028 17.2768 14.4128 21.4963 9.22205 21.4963C4.75205 21.4963 3.20255 17.3128 4.63355 13.9078Z" fill="url(#paint11_linear_3491_11973)"/>
<path d="M4.63355 13.9078C5.61005 11.5828 7.6148 9.01103 8.96855 7.61528C9.15215 7.42747 9.40214 7.31926 9.66473 7.31393C9.92731 7.3086 10.1815 7.40658 10.3726 7.58678C12.9683 9.97853 13.7498 12.1408 14.4128 14.6578C15.1028 17.2768 14.4128 21.4963 9.22205 21.4963C4.75205 21.4963 3.20255 17.3128 4.63355 13.9078Z" fill="url(#paint12_radial_3491_11973)"/>
<g filter="url(#filter1_f_3491_11973)">
<path d="M5.8604 7.65424C7.59665 5.11174 8.6129 2.36074 8.92265 1.68274C8.4704 5.15824 7.15265 7.70374 4.67165 10.9812C2.68715 13.6032 2.32865 15.8472 2.3459 16.394C1.72565 12.2225 3.68915 10.832 5.8604 7.65424Z" fill="url(#paint13_linear_3491_11973)"/>
</g>
<g filter="url(#filter2_f_3491_11973)">
<path d="M4.3605 4.90552C3.3855 6.11602 1.4475 9.47302 1.4955 13.2185C2.4555 9.37702 4.70175 8.16652 4.3605 4.90552Z" fill="url(#paint14_linear_3491_11973)"/>
</g>
<defs>
<filter id="filter0_i_3491_11973" x="4.11743" y="7.31372" width="10.7688" height="14.1826" filterUnits="userSpaceOnUse" color-interpolation-filters="sRGB">
<feFlood flood-opacity="0" result="BackgroundImageFix"/>
<feBlend mode="normal" in="SourceGraphic" in2="BackgroundImageFix" result="shape"/>
<feColorMatrix in="SourceAlpha" type="matrix" values="0 0 0 0 0 0 0 0 0 0 0 0 0 0 0 0 0 0 127 0" result="hardAlpha"/>
<feOffset dx="0.25"/>
<feGaussianBlur stdDeviation="0.125"/>
<feComposite in2="hardAlpha" operator="arithmetic" k2="-1" k3="1"/>
<feColorMatrix type="matrix" values="0 0 0 0 0.952941 0 0 0 0 0.615686 0 0 0 0 0.364706 0 0 0 1 0"/>
<feBlend mode="normal" in2="shape" result="effect1_innerShadow_3491_11973"/>
</filter>
<filter id="filter1_f_3491_11973" x="1.60474" y="1.05774" width="7.94287" height="15.9613" filterUnits="userSpaceOnUse" color-interpolation-filters="sRGB">
<feFlood flood-opacity="0" result="BackgroundImageFix"/>
<feBlend mode="normal" in="SourceGraphic" in2="BackgroundImageFix" result="shape"/>
<feGaussianBlur stdDeviation="0.3125" result="effect1_foregroundBlur_3491_11973"/>
</filter>
<filter id="filter2_f_3491_11973" x="0.744629" y="4.15552" width="4.40088" height="9.81299" filterUnits="userSpaceOnUse" color-interpolation-filters="sRGB">
<feFlood flood-opacity="0" result="BackgroundImageFix"/>
<feBlend mode="normal" in="SourceGraphic" in2="BackgroundImageFix" result="shape"/>
<feGaussianBlur stdDeviation="0.375" result="effect1_foregroundBlur_3491_11973"/>
</filter>
<radialGradient id="paint0_radial_3491_11973" cx="0" cy="0" r="1" gradientUnits="userSpaceOnUse" gradientTransform="translate(15.0011 13.7901) rotate(-179.474) scale(12.8241 19.3396)">
<stop stop-color="#FF953D"/>
<stop offset="1" stop-color="#FF5141"/>
</radialGradient>
<radialGradient id="paint1_radial_3491_11973" cx="0" cy="0" r="1" gradientUnits="userSpaceOnUse" gradientTransform="translate(4.77916 10.7405) rotate(-157.937) scale(7.75807 13.3871)">
<stop stop-color="#CE5327"/>
<stop offset="1" stop-color="#CE5327" stop-opacity="0"/>
</radialGradient>
<linearGradient id="paint2_linear_3491_11973" x1="10.752" y1="21.458" x2="10.752" y2="17.6345" gradientUnits="userSpaceOnUse">
<stop stop-color="#FF7583"/>
<stop offset="1" stop-color="#FF7583" stop-opacity="0"/>
</linearGradient>
<radialGradient id="paint3_radial_3491_11973" cx="0" cy="0" r="1" gradientUnits="userSpaceOnUse" gradientTransform="translate(0.718151 9.79368) rotate(24.015) scale(2.32849 19.2743)">
<stop stop-color="#FFAA7B"/>
<stop offset="1" stop-color="#FFAA7B" stop-opacity="0"/>
</radialGradient>
<radialGradient id="paint4_radial_3491_11973" cx="0" cy="0" r="1" gradientUnits="userSpaceOnUse" gradientTransform="translate(3.98249 3.68749) rotate(77.3197) scale(2.88026 3.59391)">
<stop stop-color="#FF5E47"/>
<stop offset="1" stop-color="#FF5E47" stop-opacity="0"/>
</radialGradient>
<radialGradient id="paint5_radial_3491_11973" cx="0" cy="0" r="1" gradientUnits="userSpaceOnUse" gradientTransform="translate(9.32174 0.024489) rotate(87.8819) scale(7.60305 7.03741)">
<stop stop-color="#FF2F3C"/>
<stop offset="1" stop-color="#FF2F3C" stop-opacity="0"/>
</radialGradient>
<radialGradient id="paint6_radial_3491_11973" cx="0" cy="0" r="1" gradientUnits="userSpaceOnUse" gradientTransform="translate(7.42499 2.59999) rotate(25.3283) scale(1.72421 3.46014)">
<stop stop-color="#FF846C"/>
<stop offset="1" stop-color="#FF846C" stop-opacity="0"/>
</radialGradient>
<radialGradient id="paint7_radial_3491_11973" cx="0" cy="0" r="1" gradientUnits="userSpaceOnUse" gradientTransform="translate(6.34349 5.15749) rotate(113.224) scale(1.70877 0.391579)">
<stop stop-color="#FFA682"/>
<stop offset="1" stop-color="#FFA682" stop-opacity="0"/>
</radialGradient>
<radialGradient id="paint8_radial_3491_11973" cx="0" cy="0" r="1" gradientUnits="userSpaceOnUse" gradientTransform="translate(12.903 17.2822) rotate(-168.558) scale(7.52182 9.36683)">
<stop stop-color="#FFDA2F"/>
<stop offset="1" stop-color="#FF8E41"/>
</radialGradient>
<radialGradient id="paint9_radial_3491_11973" cx="0" cy="0" r="1" gradientUnits="userSpaceOnUse" gradientTransform="translate(6.30005 5.44403) rotate(69.044) scale(10.6069 9.21592)">
<stop stop-color="#FD5639"/>
<stop offset="1" stop-color="#FE5533" stop-opacity="0"/>
</radialGradient>
<radialGradient id="paint10_radial_3491_11973" cx="0" cy="0" r="1" gradientUnits="userSpaceOnUse" gradientTransform="translate(11.4293 14.4718) rotate(174.239) scale(7.34899 17.9936)">
<stop offset="0.628" stop-color="#D7812D" stop-opacity="0"/>
<stop offset="1" stop-color="#D7812D"/>
</radialGradient>
<linearGradient id="paint11_linear_3491_11973" x1="9.3773" y1="6.95903" x2="9.3773" y2="9.69428" gradientUnits="userSpaceOnUse">
<stop stop-color="#F95131"/>
<stop offset="1" stop-color="#F95131" stop-opacity="0"/>
</linearGradient>
<radialGradient id="paint12_radial_3491_11973" cx="0" cy="0" r="1" gradientUnits="userSpaceOnUse" gradientTransform="translate(14.2395 13.1023) rotate(143.063) scale(12.0409 8.71305)">
<stop offset="0.772" stop-color="#F18A52" stop-opacity="0"/>
<stop offset="1" stop-color="#F18A52"/>
</radialGradient>
<linearGradient id="paint13_linear_3491_11973" x1="8.2469" y1="2.19124" x2="2.74115" y2="16.049" gradientUnits="userSpaceOnUse">
<stop stop-color="#FF7558"/>
<stop offset="1" stop-color="#F38758"/>
</linearGradient>
<linearGradient id="paint14_linear_3491_11973" x1="4.15575" y1="5.10802" x2="1.1865" y2="13.6093" gradientUnits="userSpaceOnUse">
<stop stop-color="#FF815B"/>
<stop offset="1" stop-color="#FF9C6D"/>
</linearGradient>
</defs>
</svg>
