<svg width="21" height="22" viewBox="0 0 21 22" fill="none" xmlns="http://www.w3.org/2000/svg">
<g filter="url(#filter0_iii_3491_12028)">
<path d="M12.3981 1.80806L14.0503 5.27306C14.3053 5.78756 14.7726 6.14981 15.3141 6.23006L19.0101 6.75206C20.9136 7.03406 21.6321 9.07781 20.1553 10.5666L17.5656 13.2381C17.3552 13.4505 17.199 13.7104 17.11 13.9959C17.021 14.2813 17.0018 14.5839 17.0541 14.8783L17.6361 18.6756C17.9668 20.6451 16.3086 22.0431 14.6301 21.1431L11.2281 19.3333C10.9964 19.2104 10.7381 19.1461 10.4758 19.1461C10.2135 19.1461 9.95524 19.2104 9.72355 19.3333L6.32155 21.1423C4.64305 22.0348 2.88205 20.6796 3.37405 18.6291L3.94855 14.9143C4.00082 14.6199 3.98165 14.3173 3.89264 14.0319C3.80363 13.7464 3.64739 13.4865 3.43705 13.2741L0.796303 10.5081C-0.692447 9.03731 0.0380527 7.03406 1.94155 6.75281L5.5018 6.23006C6.04405 6.14981 6.6658 5.79581 6.91405 5.27306L8.60005 1.80806C9.45805 0.0643067 11.5476 0.0643067 12.3988 1.80806" fill="url(#paint0_radial_3491_12028)"/>
<path d="M12.3981 1.80806L14.0503 5.27306C14.3053 5.78756 14.7726 6.14981 15.3141 6.23006L19.0101 6.75206C20.9136 7.03406 21.6321 9.07781 20.1553 10.5666L17.5656 13.2381C17.3552 13.4505 17.199 13.7104 17.11 13.9959C17.021 14.2813 17.0018 14.5839 17.0541 14.8783L17.6361 18.6756C17.9668 20.6451 16.3086 22.0431 14.6301 21.1431L11.2281 19.3333C10.9964 19.2104 10.7381 19.1461 10.4758 19.1461C10.2135 19.1461 9.95524 19.2104 9.72355 19.3333L6.32155 21.1423C4.64305 22.0348 2.88205 20.6796 3.37405 18.6291L3.94855 14.9143C4.00082 14.6199 3.98165 14.3173 3.89264 14.0319C3.80363 13.7464 3.64739 13.4865 3.43705 13.2741L0.796303 10.5081C-0.692447 9.03731 0.0380527 7.03406 1.94155 6.75281L5.5018 6.23006C6.04405 6.14981 6.6658 5.79581 6.91405 5.27306L8.60005 1.80806C9.45805 0.0643067 11.5476 0.0643067 12.3988 1.80806" fill="url(#paint1_radial_3491_12028)"/>
</g>
<path d="M12.3981 1.80806L14.0503 5.27306C14.3053 5.78756 14.7726 6.14981 15.3141 6.23006L19.0101 6.75206C20.9136 7.03406 21.6321 9.07781 20.1553 10.5666L17.5656 13.2381C17.3552 13.4505 17.199 13.7104 17.11 13.9959C17.021 14.2813 17.0018 14.5839 17.0541 14.8783L17.6361 18.6756C17.9668 20.6451 16.3086 22.0431 14.6301 21.1431L11.2281 19.3333C10.9964 19.2104 10.7381 19.1461 10.4758 19.1461C10.2135 19.1461 9.95524 19.2104 9.72355 19.3333L6.32155 21.1423C4.64305 22.0348 2.88205 20.6796 3.37405 18.6291L3.94855 14.9143C4.00082 14.6199 3.98165 14.3173 3.89264 14.0319C3.80363 13.7464 3.64739 13.4865 3.43705 13.2741L0.796303 10.5081C-0.692447 9.03731 0.0380527 7.03406 1.94155 6.75281L5.5018 6.23006C6.04405 6.14981 6.6658 5.79581 6.91405 5.27306L8.60005 1.80806C9.45805 0.0643067 11.5476 0.0643067 12.3988 1.80806" fill="url(#paint2_radial_3491_12028)"/>
<path d="M12.3981 1.80806L14.0503 5.27306C14.3053 5.78756 14.7726 6.14981 15.3141 6.23006L19.0101 6.75206C20.9136 7.03406 21.6321 9.07781 20.1553 10.5666L17.5656 13.2381C17.3552 13.4505 17.199 13.7104 17.11 13.9959C17.021 14.2813 17.0018 14.5839 17.0541 14.8783L17.6361 18.6756C17.9668 20.6451 16.3086 22.0431 14.6301 21.1431L11.2281 19.3333C10.9964 19.2104 10.7381 19.1461 10.4758 19.1461C10.2135 19.1461 9.95524 19.2104 9.72355 19.3333L6.32155 21.1423C4.64305 22.0348 2.88205 20.6796 3.37405 18.6291L3.94855 14.9143C4.00082 14.6199 3.98165 14.3173 3.89264 14.0319C3.80363 13.7464 3.64739 13.4865 3.43705 13.2741L0.796303 10.5081C-0.692447 9.03731 0.0380527 7.03406 1.94155 6.75281L5.5018 6.23006C6.04405 6.14981 6.6658 5.79581 6.91405 5.27306L8.60005 1.80806C9.45805 0.0643067 11.5476 0.0643067 12.3988 1.80806" fill="url(#paint3_radial_3491_12028)"/>
<path d="M12.3981 1.80806L14.0503 5.27306C14.3053 5.78756 14.7726 6.14981 15.3141 6.23006L19.0101 6.75206C20.9136 7.03406 21.6321 9.07781 20.1553 10.5666L17.5656 13.2381C17.3552 13.4505 17.199 13.7104 17.11 13.9959C17.021 14.2813 17.0018 14.5839 17.0541 14.8783L17.6361 18.6756C17.9668 20.6451 16.3086 22.0431 14.6301 21.1431L11.2281 19.3333C10.9964 19.2104 10.7381 19.1461 10.4758 19.1461C10.2135 19.1461 9.95524 19.2104 9.72355 19.3333L6.32155 21.1423C4.64305 22.0348 2.88205 20.6796 3.37405 18.6291L3.94855 14.9143C4.00082 14.6199 3.98165 14.3173 3.89264 14.0319C3.80363 13.7464 3.64739 13.4865 3.43705 13.2741L0.796303 10.5081C-0.692447 9.03731 0.0380527 7.03406 1.94155 6.75281L5.5018 6.23006C6.04405 6.14981 6.6658 5.79581 6.91405 5.27306L8.60005 1.80806C9.45805 0.0643067 11.5476 0.0643067 12.3988 1.80806" fill="url(#paint4_radial_3491_12028)"/>
<path d="M12.3981 1.80806L14.0503 5.27306C14.3053 5.78756 14.7726 6.14981 15.3141 6.23006L19.0101 6.75206C20.9136 7.03406 21.6321 9.07781 20.1553 10.5666L17.5656 13.2381C17.3552 13.4505 17.199 13.7104 17.11 13.9959C17.021 14.2813 17.0018 14.5839 17.0541 14.8783L17.6361 18.6756C17.9668 20.6451 16.3086 22.0431 14.6301 21.1431L11.2281 19.3333C10.9964 19.2104 10.7381 19.1461 10.4758 19.1461C10.2135 19.1461 9.95524 19.2104 9.72355 19.3333L6.32155 21.1423C4.64305 22.0348 2.88205 20.6796 3.37405 18.6291L3.94855 14.9143C4.00082 14.6199 3.98165 14.3173 3.89264 14.0319C3.80363 13.7464 3.64739 13.4865 3.43705 13.2741L0.796303 10.5081C-0.692447 9.03731 0.0380527 7.03406 1.94155 6.75281L5.5018 6.23006C6.04405 6.14981 6.6658 5.79581 6.91405 5.27306L8.60005 1.80806C9.45805 0.0643067 11.5476 0.0643067 12.3988 1.80806" fill="url(#paint5_radial_3491_12028)"/>
<defs>
<filter id="filter0_iii_3491_12028" x="-0.622803" y="0.250244" width="22.3169" height="21.7969" filterUnits="userSpaceOnUse" color-interpolation-filters="sRGB">
<feFlood flood-opacity="0" result="BackgroundImageFix"/>
<feBlend mode="normal" in="SourceGraphic" in2="BackgroundImageFix" result="shape"/>
<feColorMatrix in="SourceAlpha" type="matrix" values="0 0 0 0 0 0 0 0 0 0 0 0 0 0 0 0 0 0 127 0" result="hardAlpha"/>
<feOffset dy="-0.25"/>
<feGaussianBlur stdDeviation="0.75"/>
<feComposite in2="hardAlpha" operator="arithmetic" k2="-1" k3="1"/>
<feColorMatrix type="matrix" values="0 0 0 0 0.772549 0 0 0 0 0.494118 0 0 0 0 0.282353 0 0 0 1 0"/>
<feBlend mode="normal" in2="shape" result="effect1_innerShadow_3491_12028"/>
<feColorMatrix in="SourceAlpha" type="matrix" values="0 0 0 0 0 0 0 0 0 0 0 0 0 0 0 0 0 0 127 0" result="hardAlpha"/>
<feOffset dx="-0.625" dy="0.625"/>
<feGaussianBlur stdDeviation="0.375"/>
<feComposite in2="hardAlpha" operator="arithmetic" k2="-1" k3="1"/>
<feColorMatrix type="matrix" values="0 0 0 0 1 0 0 0 0 0.952941 0 0 0 0 0.286275 0 0 0 1 0"/>
<feBlend mode="normal" in2="effect1_innerShadow_3491_12028" result="effect2_innerShadow_3491_12028"/>
<feColorMatrix in="SourceAlpha" type="matrix" values="0 0 0 0 0 0 0 0 0 0 0 0 0 0 0 0 0 0 127 0" result="hardAlpha"/>
<feOffset dx="0.75" dy="-0.25"/>
<feGaussianBlur stdDeviation="0.375"/>
<feComposite in2="hardAlpha" operator="arithmetic" k2="-1" k3="1"/>
<feColorMatrix type="matrix" values="0 0 0 0 0.698039 0 0 0 0 0.537255 0 0 0 0 0.192157 0 0 0 1 0"/>
<feBlend mode="normal" in2="effect2_innerShadow_3491_12028" result="effect3_innerShadow_3491_12028"/>
</filter>
<radialGradient id="paint0_radial_3491_12028" cx="0" cy="0" r="1" gradientUnits="userSpaceOnUse" gradientTransform="translate(16.8506 5.72713) rotate(132.939) scale(14.9852 14.8298)">
<stop stop-color="#FAC632"/>
<stop offset="1" stop-color="#F7C632"/>
</radialGradient>
<radialGradient id="paint1_radial_3491_12028" cx="0" cy="0" r="1" gradientUnits="userSpaceOnUse" gradientTransform="translate(10.4736 10.9611) rotate(90) scale(10.4608 10.471)">
<stop stop-color="#DDBA38"/>
<stop offset="1" stop-color="#DDBA38" stop-opacity="0"/>
</radialGradient>
<radialGradient id="paint2_radial_3491_12028" cx="0" cy="0" r="1" gradientUnits="userSpaceOnUse" gradientTransform="translate(3.7393 6.56156) rotate(74.0547) scale(1.69886 5.66955)">
<stop stop-color="#DDBA38"/>
<stop offset="1" stop-color="#DDBA38" stop-opacity="0"/>
</radialGradient>
<radialGradient id="paint3_radial_3491_12028" cx="0" cy="0" r="1" gradientUnits="userSpaceOnUse" gradientTransform="translate(0.00205254 7.64006) rotate(16.0829) scale(2.94827 2.95115)">
<stop stop-color="#B5953A"/>
<stop offset="1" stop-color="#B5953A" stop-opacity="0"/>
</radialGradient>
<radialGradient id="paint4_radial_3491_12028" cx="0" cy="0" r="1" gradientUnits="userSpaceOnUse" gradientTransform="translate(5.1103 22.1083) rotate(-58.4961) scale(2.12117 2.12324)">
<stop stop-color="#C47E42"/>
<stop offset="1" stop-color="#C47E42" stop-opacity="0"/>
</radialGradient>
<radialGradient id="paint5_radial_3491_12028" cx="0" cy="0" r="1" gradientUnits="userSpaceOnUse" gradientTransform="translate(21.7369 7.75716) rotate(150.751) scale(1.6716 2.19796)">
<stop stop-color="#FFF246"/>
<stop offset="1" stop-color="#FFF246" stop-opacity="0"/>
</radialGradient>
</defs>
</svg>
